<svg xmlns="http://www.w3.org/2000/svg" version="1.1" xmlns:xlink="http://www.w3.org/1999/xlink" xmlns:svgjs="http://svgjs.com/svgjs" width="512" height="512" x="0" y="0" viewBox="0 0 512 512" style="enable-background:new 0 0 512 512" xml:space="preserve" class=""><g transform="matrix(0.58,0,0,0.58,107.52041656494146,108.99083953857422)"><linearGradient id="lg1"><stop stop-opacity="1" stop-color="#2e3192" offset="0"></stop><stop stop-opacity="1" stop-color="#56a0ee" offset="1"></stop></linearGradient><linearGradient id="SVGID_1_" gradientUnits="userSpaceOnUse" x1="174.64" x2="484.11" xlink:href="#lg1" y1="215.595" y2="215.595"></linearGradient><linearGradient id="SVGID_2_" gradientUnits="userSpaceOnUse" x1="27.89" x2="333.42" xlink:href="#lg1" y1="129.26" y2="129.26"></linearGradient><linearGradient id="SVGID_3_" gradientUnits="userSpaceOnUse" x1="20.061" x2="491.94" xlink:href="#lg1" y1="353.859" y2="353.859"></linearGradient><linearGradient id="SVGID_4_" gradientUnits="userSpaceOnUse" x1="20.061" x2="491.94" xlink:href="#lg1" y1="408.08" y2="408.08"></linearGradient><linearGradient id="SVGID_5_" gradientUnits="userSpaceOnUse" x1="20.061" x2="491.94" xlink:href="#lg1" y1="462.301" y2="462.301"></linearGradient><path d="m484.11 232.02c0 24.5-19.851 44.35-44.341 44.35-4.25 0-8.34-.61-12.229-1.72-10.45 13.279-26.66 21.819-44.88 21.819-11.46 0-22.13-3.39-31.07-9.2-10.12 9.091-23.49 14.631-38.16 14.631-18.55 0-35.02-8.851-45.449-22.551-7.181 5.351-16.07 8.511-25.701 8.511-22.58 0-41.09-17.38-42.91-39.5-12.91-5.86-22.35-18.04-24.34-32.6-.26-1.88-.39-3.8-.39-5.75 0-22.42 17.52-40.73 39.61-42.03 6.23-22.31 26.7-38.69 51-38.69 14.64 0 27.9 5.95 37.48 15.55 7.71-7.26 18.09-11.72 29.52-11.72 1.91 0 3.8.13 5.65.36 10.05 1.33 19.02 6.13 25.649 13.15 7.76-3.94 16.521-6.17 25.811-6.17 28.31 0 51.79 20.6 56.31 47.62 21.7 2.89 38.44 21.45 38.44 43.94z" fill="url(#SVGID_1_)" data-original="url(#SVGID_1_)"></path><path d="m164.64 210.01c0 2.07.12 4.13.37 6.15-17.58-.8-33.1-9.5-43.11-22.64-7.22 5.38-16.18 8.57-25.88 8.57-22.75 0-41.39-17.51-43.23-39.79-14.68-6.67-24.9-21.45-24.9-38.63 0-22.58 17.64-41.04 39.9-42.34 6.28-22.48 26.89-38.97 51.37-38.97 14.75 0 28.1 5.98 37.76 15.66 7.76-7.32 18.22-11.81 29.73-11.81 12.43 0 23.62 5.24 31.53 13.61 7.81-3.97 16.64-6.21 26-6.21 28.51 0 52.169 20.75 56.72 47.97 13.859 1.84 25.71 10.03 32.52 21.55-.39-.01-.78-.01-1.17-.01-10.49 0-20.6 3.07-29.21 8.76-10.84-8.17-23.97-12.59-37.79-12.59-25.85 0-48.99 15.97-58.45 39.57-24.13 4.66-42.16 25.94-42.16 51.15z" fill="url(#SVGID_2_)" data-original="url(#SVGID_2_)"></path><g><path d="m408.621 368.202c-20.38 0-30.696-3.971-40.673-7.811-9.188-3.536-17.865-6.876-35.644-6.876-17.777 0-26.455 3.34-35.642 6.876-9.977 3.84-20.293 7.811-40.672 7.811-20.378 0-30.694-3.971-40.67-7.811-9.187-3.536-17.864-6.876-35.641-6.876-17.776 0-26.453 3.34-35.639 6.876-9.976 3.84-20.291 7.811-40.668 7.811-20.378 0-30.693-3.971-40.669-7.811-9.187-3.536-17.864-6.876-35.641-6.876-3.866 0-7-3.134-7-7s3.134-7 7-7c20.378 0 30.694 3.971 40.67 7.811 9.187 3.536 17.864 6.876 35.64 6.876s26.453-3.34 35.639-6.876c9.976-3.84 20.291-7.811 40.668-7.811 20.378 0 30.694 3.971 40.67 7.811 9.187 3.536 17.864 6.876 35.641 6.876 17.779 0 26.457-3.34 35.643-6.876 9.977-3.84 20.292-7.811 40.671-7.811 20.38 0 30.696 3.971 40.673 7.811 9.188 3.536 17.865 6.876 35.644 6.876s26.458-3.34 35.646-6.876c9.978-3.84 20.293-7.811 40.673-7.811 3.866 0 7 3.134 7 7s-3.134 7-7 7c-17.778 0-26.456 3.34-35.644 6.876-9.978 3.84-20.294 7.811-40.675 7.811z" fill="url(#SVGID_3_)" data-original="url(#SVGID_3_)"></path></g><g><path d="m408.621 422.423c-20.38 0-30.696-3.971-40.673-7.811-9.188-3.536-17.865-6.876-35.644-6.876-17.777 0-26.455 3.34-35.642 6.876-9.977 3.84-20.293 7.811-40.672 7.811-20.378 0-30.694-3.971-40.67-7.811-9.187-3.536-17.864-6.876-35.641-6.876-17.776 0-26.453 3.34-35.639 6.876-9.976 3.84-20.291 7.811-40.668 7.811-20.378 0-30.693-3.971-40.669-7.811-9.187-3.536-17.864-6.876-35.641-6.876-3.866 0-7-3.134-7-7s3.134-7 7-7c20.378 0 30.694 3.971 40.67 7.811 9.187 3.536 17.864 6.876 35.64 6.876s26.453-3.34 35.639-6.876c9.976-3.84 20.291-7.811 40.668-7.811 20.378 0 30.694 3.971 40.67 7.811 9.187 3.536 17.864 6.876 35.641 6.876 17.779 0 26.457-3.34 35.643-6.876 9.977-3.84 20.292-7.811 40.671-7.811 20.38 0 30.696 3.971 40.673 7.811 9.188 3.536 17.865 6.876 35.644 6.876s26.458-3.34 35.646-6.876c9.978-3.84 20.293-7.811 40.673-7.811 3.866 0 7 3.134 7 7s-3.134 7-7 7c-17.778 0-26.456 3.34-35.644 6.876-9.978 3.84-20.294 7.811-40.675 7.811z" fill="url(#SVGID_4_)" data-original="url(#SVGID_4_)"></path></g><g><path d="m408.621 476.644c-20.38 0-30.696-3.971-40.673-7.811-9.188-3.536-17.865-6.876-35.644-6.876-17.777 0-26.455 3.34-35.642 6.876-9.977 3.84-20.293 7.811-40.672 7.811-20.378 0-30.694-3.971-40.67-7.811-9.187-3.536-17.864-6.876-35.641-6.876-17.776 0-26.453 3.34-35.639 6.876-9.976 3.84-20.291 7.811-40.668 7.811-20.378 0-30.693-3.971-40.669-7.811-9.187-3.536-17.864-6.876-35.641-6.876-3.866 0-7-3.134-7-7s3.134-7 7-7c20.378 0 30.694 3.971 40.67 7.811 9.187 3.536 17.864 6.876 35.64 6.876s26.453-3.34 35.639-6.876c9.976-3.84 20.291-7.811 40.668-7.811 20.378 0 30.694 3.971 40.67 7.811 9.187 3.536 17.864 6.876 35.641 6.876 17.779 0 26.457-3.34 35.643-6.876 9.977-3.84 20.292-7.811 40.671-7.811 20.38 0 30.696 3.971 40.673 7.811 9.188 3.536 17.865 6.876 35.644 6.876s26.458-3.34 35.646-6.876c9.978-3.84 20.293-7.811 40.673-7.811 3.866 0 7 3.134 7 7s-3.134 7-7 7c-17.778 0-26.456 3.34-35.644 6.876-9.978 3.84-20.294 7.811-40.675 7.811z" fill="url(#SVGID_5_)" data-original="url(#SVGID_5_)"></path></g></g></svg>