<svg xmlns="http://www.w3.org/2000/svg" xml:space="preserve" width="512" height="512" style="enable-background:new 0 0 512 512" viewBox="0 0 60 60"><g fill="#000" fill-rule="nonzero"><path d="M57 5h-1.09a5.993 5.993 0 0 0-11.82 0h-5.18a5.993 5.993 0 0 0-11.82 0h-4.18a5.993 5.993 0 0 0-11.82 0H9a3 3 0 0 0-3 3v32A14.775 14.775 0 0 1 .678 51.633 1.909 1.909 0 0 0 1.917 55H6v2a3 3 0 0 0 3 3h48a3 3 0 0 0 3-3V8a3 3 0 0 0-3-3zm-7-3a4 4 0 0 1 3.858 3h-7.716A4 4 0 0 1 50 2zM33 2a4 4 0 0 1 3.858 3h-7.716A4 4 0 0 1 33 2zM17 2a4 4 0 0 1 3.858 3h-7.716A4 4 0 0 1 17 2zm41 55a1 1 0 0 1-1 1H9a1 1 0 0 1-1-1v-2h43.2c.791 0 1.565-.233 2.226-.668A13.561 13.561 0 0 0 58 48.894zm-5.671-4.341c-.335.22-.728.34-1.129.341l-49.109.058A16.95 16.95 0 0 0 8 40V8a1 1 0 0 1 1-1h2.09A6.006 6.006 0 0 0 17 12a1 1 0 0 0 0-2 4 4 0 0 1-3.858-3H27.09A6.006 6.006 0 0 0 33 12a1 1 0 0 0 0-2 4 4 0 0 1-3.858-3H44.09A6.006 6.006 0 0 0 50 12a1 1 0 0 0 0-2 4 4 0 0 1-3.858-3H57a1 1 0 0 1 1 1v32c0 5.434-2.226 10.4-5.671 12.659z" data-original="#000000"/><path d="M24 37a6.006 6.006 0 0 0 6-6v-8a6 6 0 1 0-12 0v8a6.006 6.006 0 0 0 6 6zm-4-14a4 4 0 1 1 8 0v8a4 4 0 1 1-8 0zM35 35a1 1 0 0 0 0 2h8a1 1 0 0 0 0-2h-3V18a1 1 0 0 0-1.707-.707l-4 4a1 1 0 0 0 1.414 1.414L38 20.414V35zM48 40H16a1 1 0 0 0 0 2h32a1 1 0 0 0 0-2zM46 45H18a1 1 0 0 0 0 2h28a1 1 0 0 0 0-2z" data-original="#000000"/></g></svg>