<svg xmlns="http://www.w3.org/2000/svg" xml:space="preserve" width="512" height="512" style="enable-background:new 0 0 512 512" viewBox="0 0 60 60"><path fill="#e9e8f2" d="M24.115 59.47a.5.5 0 0 1-.261-.927l.411-.25-1.923 1.107a.5.5 0 0 1-.518-.855l15.9-10.055L18.827 59.4a.5.5 0 0 1-.515-.856l17.234-10.81L15.34 59.4a.5.5 0 0 1-.51-.86l5.414-3.288-7.185 4.148a.5.5 0 0 1-.513-.858l17.133-10.571L9.879 59.4a.5.5 0 0 1-.51-.86l9.719-5.894L7.389 59.4a.5.5 0 0 1-.511-.859l17.593-10.75L4.5 59.325a.5.5 0 0 1-.512-.859l22.176-13.593L2.665 58.44a.5.5 0 0 1-.508-.86l11.817-7.128-12.137 7.007a.5.5 0 0 1-.512-.858l26.222-16.112L1.294 55.646a.5.5 0 0 1-.512-.858l26.305-16.175-25.808 14.9a.5.5 0 0 1-.509-.861l16.1-9.78-15.591 9a.5.5 0 0 1-.512-.857L23.731 36.8 1.278 49.766a.5.5 0 0 1-.509-.861l9.657-5.864-9.148 5.281a.5.5 0 0 1-.515-.856L21.5 34.486 1.277 46.162a.5.5 0 0 1-.509-.862l5.517-3.361-5.008 2.895a.5.5 0 0 1-.511-.859L8.2 39.418l-6.922 4a.5.5 0 0 1-.513-.857l9.688-6-9.176 5.3A.5.5 0 0 1 .761 41l10.886-6.827-10.371 5.983a.5.5 0 0 1-.514-.856l6.087-3.788-5.574 3.216a.5.5 0 0 1-.518-.855l8.957-5.693-8.439 4.871a.5.5 0 0 1-.519-.851l7.326-4.683-6.808 3.926a.5.5 0 0 1-.525-.849l8.872-5.865-8.347 4.819a.5.5 0 0 1-.526-.85l6.119-4.05-5.594 3.23a.5.5 0 0 1-.539-.841L8.115 25.8l-6.842 3.95a.5.5 0 0 1-.535-.843l3.6-2.5-3.06 1.766a.5.5 0 0 1-.547-.834l3.43-2.55-2.889 1.664a.5.5 0 0 1-.542-.839l.387-.277a.506.506 0 0 1-.489-.184.5.5 0 0 1 .035-.653l2.176-2.247-1.568.9a.5.5 0 0 1-.6-.076.5.5 0 0 1-.087-.6l.7-1.27a.5.5 0 0 1-.208-.932l1.187-.675a.5.5 0 0 1 .687.675l-.619 1.115 3.106-1.79a.5.5 0 0 1 .61.78L3.87 22.624 9.115 19.6a.5.5 0 0 1 .542.839l-.162.116 1.656-.956a.5.5 0 0 1 .548.834l-3.431 2.546L14.13 19.6a.5.5 0 0 1 .535.842l-3.588 2.5 5.784-3.34a.5.5 0 0 1 .539.841l-7.385 5.241L20.551 19.6a.5.5 0 0 1 .526.849l-6.112 4.045 8.479-4.895a.5.5 0 0 1 .526.849l-8.88 5.87 11.639-6.719a.5.5 0 0 1 .52.853l-7.31 4.673 9.575-5.527a.5.5 0 0 1 .518.854l-8.97 5.7 11.358-6.559a.5.5 0 0 1 .515.857l-6.06 3.772 8.02-4.63a.5.5 0 0 1 .515.856L24.5 27.29l13.335-7.7a.5.5 0 0 1 .514.857l-9.669 5.99 11.862-6.848a.5.5 0 0 1 .512.858l-7.442 4.563L43 19.591a.5.5 0 0 1 .51.859l-5.525 3.364 7.315-4.223a.5.5 0 0 1 .515.856L25.086 33.423 49.045 19.59a.5.5 0 0 1 .51.86l-9.688 5.883 11.68-6.743a.5.5 0 0 1 .513.857L29.106 34.652 55.2 19.589a.5.5 0 0 1 .51.86l-16.125 9.794L57.844 19.7a.5.5 0 0 1 .511.859l-26.293 16.17L58.72 21.338a.5.5 0 0 1 .511.858L33.01 38.308l25.71-14.844a.5.5 0 0 1 .508.86l-11.8 7.117 11.292-6.518a.5.5 0 0 1 .511.859L37.05 39.375l21.67-12.511a.5.5 0 0 1 .51.86l-17.6 10.754 17.09-9.866a.5.5 0 0 1 .509.861l-9.711 5.889 9.2-5.312a.5.5 0 0 1 .512.858L42.082 41.492l16.638-9.6a.5.5 0 0 1 .509.86l-5.395 3.276L58.72 33.2a.5.5 0 0 1 .515.857L42 44.871l16.72-9.654a.5.5 0 0 1 .517.855l-15.892 10.05 15.375-8.877a.5.5 0 0 1 .51.859l-.477.292a.5.5 0 0 1 .487.872L45.477 48.12l13.243-7.645a.5.5 0 0 1 .52.853l-10.629 6.84 10.109-5.836a.5.5 0 0 1 .519.854l-7.109 4.556 6.59-3.8a.5.5 0 0 1 .519.854l-4.008 2.559 3.489-2.014a.5.5 0 0 1 .534.844l-9.015 6.237 8.481-4.9a.5.5 0 0 1 .539.841l-6.735 4.767 6.2-3.576a.5.5 0 0 1 .531.845l-2.046 1.391 1.511-.872a.5.5 0 0 1 .567.818l-4.594 3.785L58.72 53.2a.5.5 0 0 1 .584.8l-2.377 2.13 1.751-1.01a.5.5 0 0 1 .609.78l-1.114 1.149a.493.493 0 0 1 .312.235.5.5 0 0 1-.182.683l-2.376 1.371a.5.5 0 0 1-.61-.78l.756-.781-2.814 1.623a.5.5 0 0 1-.584-.8l2.376-2.129-5.082 2.929a.5.5 0 0 1-.568-.818l4.593-3.782-7.971 4.6a.5.5 0 0 1-.531-.845l2.048-1.4-3.881 2.245a.5.5 0 0 1-.539-.84l6.733-4.76-9.711 5.6a.5.5 0 0 1-.535-.843l9.017-6.239L36.355 59.4a.5.5 0 0 1-.519-.854l4-2.554-5.9 3.408a.5.5 0 0 1-.52-.853l7.107-4.555-9.371 5.408a.5.5 0 0 1-.52-.853l10.632-6.842L27.935 59.4a.5.5 0 0 1-.521-.853L41.179 49.7l-16.814 9.7a.5.5 0 0 1-.25.07z" data-original="#e9e8f2"/><path fill="#3955c9" d="M28.613 48.467a.5.5 0 0 1-.348-.859l.614-.6-1.5.863a.5.5 0 0 1-.577-.811l3.654-3.154-4.465 2.577a.5.5 0 0 1-.554-.83l5.579-4.26-6.4 3.694a.5.5 0 0 1-.636-.751l1.085-1.318-1.585.916a.5.5 0 0 1-.6-.791l.346-.339-.546.315a.5.5 0 0 1-.673-.7l1.174-1.86a.5.5 0 0 1-.414-.905l1.658-.956a.5.5 0 0 1 .673.7l-1.164 1.842 2.211-1.276a.5.5 0 0 1 .6.79l-.347.34.558-.322a.5.5 0 0 1 .636.751l-1.085 1.318 10.725-6.193a.5.5 0 0 1 .554.83l-5.579 4.262 2.332-1.34a.5.5 0 0 1 .577.812l-3.655 3.154.383-.22a.5.5 0 0 1 .6.791l-1.693 1.649a.473.473 0 0 1 .078.1.5.5 0 0 1-.182.683L28.863 48.4a.49.49 0 0 1-.25.067z" data-original="#39c96c"/><path fill="#3955c9" d="M28.606 42.243a.5.5 0 0 1-.285-.911l1.856-1.286a.5.5 0 0 1-.262-.908l2.132-1.5a.5.5 0 0 1-.4-.892l2.708-1.994-.18.1a.5.5 0 0 1-.548-.834l1.609-1.192a.5.5 0 0 1-.181-.8l2.554-2.755a.487.487 0 0 1-.1-.124.5.5 0 0 1 .182-.682l1.5-.864a.5.5 0 0 1 .617.772l-1.764 1.9 2.932-1.692a.5.5 0 0 1 .548.834l-.276.2.382-.22a.5.5 0 0 1 .547.835l-2.7 1.992 1.624-.938a.5.5 0 0 1 .537.842l-2.111 1.482a.5.5 0 0 1 .4.9l-1.833 1.269a.5.5 0 0 1 .229.933l-9.457 5.46a.494.494 0 0 1-.26.073z" data-original="#39c96c"/><path fill="#519df2" d="M3.9 21.5a.5.5 0 0 1-.272-.919l8.543-5.547L1.28 21.321a.5.5 0 0 1-.519-.853l6.625-4.247-6.106 3.524a.5.5 0 0 1-.52-.853l4.481-2.878L1.28 18.3a.5.5 0 0 1-.537-.842l8.964-6.279-8.427 4.865a.5.5 0 0 1-.531-.844l4.323-2.939-3.792 2.186a.5.5 0 0 1-.534-.847l2.826-1.952-2.292 1.327a.5.5 0 0 1-.564-.822l4.318-3.488-3.754 2.167a.5.5 0 0 1-.592-.8l2.559-2.391-1.9 1.1a.5.5 0 0 1-.6-.787l1.02-1.021a.5.5 0 0 1-.07-.9l2.376-1.372a.5.5 0 0 1 .6.787l-.51.508L6.52 4.6a.5.5 0 0 1 .591.8L4.554 7.788 10.08 4.6a.5.5 0 0 1 .565.821l-4.32 3.487L13.792 4.6a.5.5 0 0 1 .534.843L11.5 7.391 16.342 4.6a.5.5 0 0 1 .531.845l-4.319 2.936L19.106 4.6a.5.5 0 0 1 .538.841l-8.966 6.279L23.015 4.6a.5.5 0 0 1 .52.853l-4.484 2.88L25.519 4.6a.5.5 0 0 1 .519.853L19.417 9.7l8.831-5.1a.5.5 0 0 1 .523.851l-8.541 5.543L31.31 4.6a.5.5 0 0 1 .522.851L23.289 11l11.083-6.4a.5.5 0 0 1 .529.847L23.24 13.292 38.3 4.6a.5.5 0 0 1 .516.855l-3.727 2.351L40.646 4.6a.5.5 0 0 1 .522.852l-8.347 5.409L43.669 4.6a.5.5 0 0 1 .527.848l-11.134 7.433L47.409 4.6a.5.5 0 0 1 .528.848l-11.264 7.533L51.194 4.6a.5.5 0 0 1 .524.851L42.606 11.4 54.38 4.6a.5.5 0 0 1 .519.853L48.423 9.6l8.008-4.623a.5.5 0 0 1 .522.851l-8.082 5.253 8.863-5.116a.5.5 0 0 1 .516.856l-.384.241.435-.25a.5.5 0 0 1 .524.85l-6.569 4.318L58.7 8.261a.5.5 0 0 1 .537.842l-8.242 5.784 7.731-4.463a.5.5 0 0 1 .527.848l-2.16 1.438 1.635-.943a.5.5 0 0 1 .54.839l-3.727 2.65 3.191-1.842a.5.5 0 0 1 .555.829l-3.252 2.5 2.7-1.558a.5.5 0 0 1 .6.786l-2.668 2.669 2.075-1.2a.5.5 0 0 1 .689.673l-.837 1.531.153-.088a.5.5 0 1 1 .5.865l-1.7.98a.5.5 0 0 1-.6-.075.5.5 0 0 1-.089-.6L57.7 19.2l-3.82 2.205a.5.5 0 0 1-.6-.786l2.673-2.672-5.994 3.46a.5.5 0 0 1-.555-.829l3.253-2.5-5.767 3.329a.5.5 0 0 1-.54-.84l3.727-2.65-6.055 3.493a.5.5 0 0 1-.527-.848l2.154-1.434-3.958 2.284a.5.5 0 0 1-.537-.842l8.246-5.784-11.484 6.628a.5.5 0 0 1-.524-.851l6.578-4.328-8.97 5.18a.5.5 0 0 1-.516-.856l.378-.238-1.9 1.095a.5.5 0 0 1-.523-.852l8.072-5.246-10.566 6.1a.5.5 0 0 1-.519-.854l6.49-4.153-8.675 5.008a.5.5 0 0 1-.523-.852l9.109-5.944-11.774 6.8a.5.5 0 0 1-.529-.849l11.264-7.534-14.522 8.383a.5.5 0 0 1-.528-.849l11.137-7.435-14.354 8.286a.5.5 0 0 1-.521-.853l8.343-5.408L13.5 21.427a.5.5 0 0 1-.516-.856l3.73-2.353-5.561 3.21a.5.5 0 0 1-.529-.848l11.662-7.848-15.07 8.698a.5.5 0 0 1-.523-.852l8.536-5.542-11.078 6.4a.494.494 0 0 1-.251.064z" data-original="#f25151"/><path fill="#af3542" d="M12.554 16.431a.5.5 0 0 1-.378-.827l1.472-1.7-3.392 1.956a.5.5 0 0 1-.6-.787l2.7-2.682-3.537 2.042a.5.5 0 0 1-.591-.8l2.462-2.3-2.39 1.378A.5.5 0 0 1 7.632 12l1.345-2.024a.5.5 0 0 1-.471-.249.5.5 0 0 1 .182-.683l1.572-.907a.494.494 0 0 1 .614.09.5.5 0 0 1 .053.619L9.643 10.78l4.321-2.495a.5.5 0 0 1 .592.8L12.09 11.39 15.2 9.6a.5.5 0 0 1 .6.787l-2.7 2.681 2.623-1.514a.5.5 0 0 1 .628.76l-1.474 1.7a.5.5 0 1 1 .5.865L12.8 16.363a.49.49 0 0 1-.246.068zM47.3 16.4a.5.5 0 0 1-.354-.853l1.909-1.908-3.155 1.828a.5.5 0 0 1-.591-.8l2.54-2.367-3.025 1.746a.5.5 0 0 1-.607-.782l2.383-2.437-2.1 1.211a.5.5 0 0 1-.639-.747l1.091-1.349a.493.493 0 0 1-.25-.215.5.5 0 0 1 .182-.683l1.572-.907a.5.5 0 0 1 .638.747l-.761.941 2.931-1.692a.5.5 0 0 1 .608.782l-2.382 2.434 3.665-2.116a.5.5 0 0 1 .591.8L49 12.4l2.651-1.53a.5.5 0 0 1 .6.786l-1.909 1.908 1.14-.658a.5.5 0 1 1 .5.865l-4.434 2.561a.489.489 0 0 1-.248.068z" data-original="#af3542"/><path fill="#e9e8f2" d="M12.028 12.468a.5.5 0 0 1-.417-.777l.765-1.152-1.746 1.008a.5.5 0 0 1-.637-.75l1.852-2.258-1.565.9a.5.5 0 0 1-.585-.8l.486-.44a.5.5 0 0 1-.525-.808l1.886-2.122L10.28 6a.5.5 0 0 1-.641-.743l1.6-2.015-.957.552a.5.5 0 0 1-.634-.753l.487-.583a.49.49 0 0 1-.25-.216.5.5 0 0 1 .182-.682L11.722.6a.5.5 0 0 1 .633.753l-.137.164.792-.456a.5.5 0 0 1 .641.743l-1.6 2.013 1.666-.962a.5.5 0 0 1 .624.765l-1.883 2.122 1.262-.728a.5.5 0 0 1 .585.8l-.488.441a.5.5 0 0 1 .539.794l-1.85 2.257 1.214-.7a.5.5 0 0 1 .667.709l-.8 1.2a.5.5 0 0 1 .528.241.5.5 0 0 1-.182.682l-1.656.956a.49.49 0 0 1-.249.074zM46.805 12.063a.5.5 0 0 1-.383-.823l1.329-1.578-1.465.846a.5.5 0 0 1-.623-.766l1.849-2.065-1.232.711a.5.5 0 0 1-.622-.767L47.5 5.57l-1.219.7a.5.5 0 0 1-.626-.761L47.2 3.745l-.919.53a.5.5 0 0 1-.661-.716l.74-1.073a.5.5 0 0 1-.476-.248.5.5 0 0 1 .182-.682L47.722.6a.5.5 0 0 1 .661.716L47.7 2.3l1.608-.928a.5.5 0 0 1 .626.762L48.394 3.9l1.326-.765a.5.5 0 0 1 .622.766L48.5 5.95l1.218-.7a.5.5 0 0 1 .623.766l-1.847 2.062 1.226-.707a.5.5 0 0 1 .633.755L49.023 9.7l.7-.4a.5.5 0 0 1 .5.865L47.055 12a.49.49 0 0 1-.25.063z" data-original="#e9e8f2"/><g fill="#262626"><path d="M26.347 39.355c-1.928-2.048-6.442 1.549-4.5 3.751 2.078 1.748 3.614 4.764 6.4 5.293 5.969-2.488 8.369-10.6 12.784-15.252 2.587-2.214 1.709-5.616-1.88-5.509-4.738 3.062-7.111 9.367-10.914 13.628-.623-.644-1.245-1.291-1.89-1.911zM38.49 29.026c.787-1.375 2.9.529 2.775 1.616-.085.71-.811 1.426-1.206 1.976C36.181 37.4 33.15 43.4 28.825 47.6c-1.2-.081-2.344-1.721-3.118-2.507-1.046-1.324-4.264-2.988-2.277-4.763 1.414-2 2.931 1.347 4.117 2.171 3.307-.596 7.983-10.525 10.943-13.475z" data-original="#262626"/><path d="M59.724 16.182c.333-7.934.769-12.718-9-11.5 1.2-5.457-6.476-5.122-5.448.039H14.729C15.951-.76 8.283-.591 9.276 4.663 3.853 3.914-.9 5.87.276 12.066v20.878c.955 6.591-2.224 21.225 1.839 25.65 15.261 1.972 31.362.094 46.889.723 3.806 0 10.609.967 10.72-4.655.085-12.824-.048-25.654 0-38.48zM47.532 12.3a3 3 0 0 0 3.145-2.183c3.326 7.492-8.584 6.833-5.4-.262a2.237 2.237 0 0 0 2.255 2.445zm-.808-4.169c.458-1.937-1.165-6.144 1.19-6.783 2.78 1.591.8 6.135 1.362 8.841-.784 3.55-3.215-.058-2.552-2.054zm-35.208 4.227a2.959 2.959 0 0 0 3.161-2.2c3.275 7.292-8.534 6.692-5.4-.2a2.3 2.3 0 0 0 2.239 2.4zm-.792-4.319c.313-1.671-1.181-8.226 2.062-6.13.721 1.262 1.2 9.418-.494 9.717-1.804-.126-1.584-2.281-1.568-3.587zm-9 2.184C.842 5.244 5.609 4.962 9.276 5.315v3.158a4.338 4.338 0 0 0 .1 7.333c4.764 2.974 10.429-4.22 5.344-7.529 0-1 0-2 .007-3h30.549v3.311a4.2 4.2 0 0 0 .087 7.165c4.693 2.84 10.487-4.141 5.361-7.443V5.316c10.433-1.967 7.06 8.617 7.552 15.127H1.724zM56.643 58.3c-14.779 1.117-30.036.007-44.968.386-3.653-.165-9.846 1.266-9.951-4.133-.049-11 .027-22 0-32.994h56.552v31.26c0 1.938.29 4.264-1.633 5.481z" data-original="#262626"/><path d="M42.727 37.919c-2.8-2.286-.965 9.259-1.454 10.914.808 4.086-3.9 2.431-6.364 2.726-4.865-.083-9.758.14-14.611 0-2.183-.219-1.571-3.581-1.571-5.086.732-3.8-1.66-16.582 1.292-18.032 1.505-.466 14 .984 12.255-.882-4.376.747-11.477-1.825-14.73 1.488-.705 7.04-.1 14.361-.243 21.471.435 2.47 3.705 1.923 5.506 1.923 17.551-1.441 21.2 6.585 19.92-14.522z" data-original="#262626"/></g></svg>