<svg xmlns="http://www.w3.org/2000/svg" xml:space="preserve" width="512" height="512" style="enable-background:new 0 0 512 512" viewBox="0 0 468 468"><path fill="#993631" d="m297.471 361.06-11.788-3.728s-54.158 28.887-63.168 80.532l11.063.506c9.01-51.645 63.893-77.31 63.893-77.31z" data-original="#993631"/><path fill="#db5e43" d="M349.904 461.469c1.827-3.878-2.119-19.583-2.119-19.583-1.626-11.127 36.281-3.498 36.281-3.498 1.671-16.903 34.499-20.315 43.452-20.932-20.363.473-32.463-19.416-32.463-19.416-14.7-2.881-12.83-11.193-12.83-11.193 2.031-8.973-19.031-9.611-19.031-9.611-16.512-.688-10.167-12.701-10.167-12.701 12.941-2.712 48.072-22.714 48.072-22.714-10.461-2.818-13.122-8.476-15.178-13.61-2.056-5.133 7.782-16.648 7.782-16.648-9.436-6.622 15.163-30.605 15.163-30.605-27.635 19.5-36.207 7.084-36.207 7.084-3.669-1.148-13.042 4.845-13.042 4.845-13.042 4.845-14.351-16.784-14.351-16.784-22.673 16.592-28.962 37.551-28.962 37.551-7.357 10.31-9.893-2.849-9.893-2.849 13.722-28.985 1.154-26.501 1.702-29.518.547-3.017 1.08-25.202 1.08-25.202-9.518-2.206-14.799-35.663-14.799-35.663 2.242 28.503-22.967 31.456-22.967 31.456-2.161 6.627-4.253 12.131-6.085 16.532-3.696 8.875-14.866 11.895-22.378 5.898-5.071-4.048-8.344-8.226-8.344-8.226-5.5 33.126 11.277 61.162 11.277 61.162s-10.087 7.17-34.199-7.489c-.297.339 9.065 64.841 44.032 69.171-8.615 27.791 36.053 73.303 35.487 72.426-5.938-22.94 10.724-35.633 10.724-35.633 15.814 37.119 47.963 35.75 47.963 35.75z" data-original="#db5e43"/><g fill="#fff"><path d="M246.51 366.276c-5.393-10.537-5.934-14.502-7.73-20.668a3.884 3.884 0 0 0-3.07-2.75c-2.913-.497-5.298 2.322-4.305 5.106 2.585 7.243 6.257 14.977 11.32 20.865a2.3 2.3 0 0 0 3.792-.455c.336-.659.33-1.44-.007-2.098zM271.193 403.576c5.352 10.558 8.241 13.326 12.172 18.404a3.884 3.884 0 0 1 .419 4.101c-1.31 2.649-4.993 2.923-6.66.483-4.338-6.349-8.435-13.866-10.222-21.425a2.3 2.3 0 0 1 2.597-2.801 2.307 2.307 0 0 1 1.694 1.238z" data-original="#ffffff" opacity=".5"/></g><g fill="#a44a42"><path d="M381.415 317.745s-7.105 11.004-5.187 16.19c2.707 7.319 8.667 8.865 17.265 12.11 6.992-3.726 7.606-4.225 7.606-4.225-10.461-2.818-13.122-8.476-15.178-13.609s7.782-16.648 7.782-16.648c-9.436-6.622 15.163-30.605 15.163-30.605-5.459 3.852-10.164 6.444-14.216 8.147-5.6 5.853-21.032 23.168-13.235 28.64z" data-original="#a44a42"/><path d="M339.081 286.56s1.309 21.629 14.351 16.784c0 0 9.374-5.993 13.043-4.845 0 0 7.312 10.551 30.153-3.137 5.11-7.451 12.237-14.404 12.237-14.404-27.635 19.5-36.207 7.084-36.207 7.084-3.669-1.148-13.043 4.845-13.043 4.845-13.042 4.845-14.351-16.784-14.351-16.784a88.288 88.288 0 0 0-6.228 5.008c.042 1.663.058 3.476.045 5.449zM347.785 441.887c-1.626-11.127 36.281-3.498 36.281-3.498 1.671-16.903 34.499-20.315 43.452-20.932-9.501.221-17.201-3.992-22.715-8.548-12.85 1.559-35.68 6.291-37.067 20.318 0 0-37.907-7.629-36.281 3.498 0 0 3.319 20.266 2.459 25.446 7.017 4.001 15.99 3.299 15.99 3.299 1.827-3.879-2.119-19.583-2.119-19.583zM249.826 290.491c7.512 5.997 18.682 2.977 22.378-5.898 1.833-4.401 3.925-9.906 6.086-16.532 0 0 19.671-2.319 22.705-22.522-4.302-10.545-6.604-25.118-6.604-25.118 2.242 28.503-22.967 31.456-22.967 31.456-2.161 6.627-4.253 12.132-6.086 16.532-3.696 8.875-14.866 11.895-22.378 5.898-5.071-4.048-8.344-8.226-8.344-8.226-.024.142-.04.282-.063.424a362.552 362.552 0 0 1 2.494 5.976c2.327 5.708 5.634 11.003 9.943 15.409a31.73 31.73 0 0 0 2.836 2.601z" data-original="#a44a42"/></g><g fill="#993631"><path d="M299.161 296.569a1.489 1.489 0 0 0-1.987.701 6.813 6.813 0 0 1-7.184 3.819l-.315-.047c2.043-8.493 3.803-17.242 5.113-26.079a1.49 1.49 0 0 0-1.256-1.693 1.498 1.498 0 0 0-1.692 1.256c-1.775 11.976-4.381 23.792-7.406 35.017-2.479-1.48-3.661-4.418-2.8-7.233a1.49 1.49 0 1 0-2.849-.873 9.231 9.231 0 0 0 4.833 11.077 393.914 393.914 0 0 1-4.863 16.104c-3.115-2.076-5.178-5.496-5.497-9.279l-.059-.697a1.497 1.497 0 0 0-1.611-1.359 1.49 1.49 0 0 0-1.358 1.611l.059.697c.419 4.965 3.26 9.428 7.508 11.942a439.816 439.816 0 0 1-5.264 14.892 15.18 15.18 0 0 1-6.745-9.353l-.16-.662a1.489 1.489 0 1 0-2.896.701l.16.662c1.179 4.879 4.281 8.976 8.581 11.466-8.843 23.207-16.914 38.703-17.066 38.993a1.49 1.49 0 1 0 2.638 1.387c.155-.295 8.509-16.333 17.563-40.252.03-.048 1.85-4.955 2.667-7.228.869.15 1.74.231 2.604.231 4.728 0 9.26-2.199 12.228-6.136a1.487 1.487 0 0 0-.333-2.064 1.493 1.493 0 0 0-2.074.307 12.28 12.28 0 0 1-11.407 4.802c1.65-4.694 3.29-9.614 4.875-14.71.724.114 1.447.19 2.165.19 4.427 0 8.631-2.118 11.286-5.862a1.491 1.491 0 0 0-2.43-1.725 10.833 10.833 0 0 1-10.14 4.524c.931-3.072 4.241-15.06 4.912-17.745l.59.088c.493.073.983.109 1.469.109a9.776 9.776 0 0 0 8.841-5.59 1.492 1.492 0 0 0-.7-1.989z" data-original="#993631"/><path d="M371.722 402.536a579 579 0 0 0-16.368-3.369 17.696 17.696 0 0 1 9.749-6.239c.958-.094 1.772-.897 1.52-1.898-.232-1.008-1.322-1.352-2.218-.999-5.07 1.224-9.391 4.245-12.308 8.525a705.02 705.02 0 0 0-21.913-3.713 10.31 10.31 0 0 1 9.88-6.161c.948.169 1.971-.372 2.003-1.413.052-1.046-.923-1.663-1.887-1.566a13.28 13.28 0 0 0-13.014 8.683 829.864 829.864 0 0 0-27.174-3.598c2.22-3.782 6.118-6.354 10.535-6.814a1.491 1.491 0 0 0-.308-2.965c-5.801.604-10.887 4.193-13.428 9.415-22.792-2.553-38.355-3.384-38.651-3.399a1.48 1.48 0 0 0-1.565 1.412 1.49 1.49 0 0 0 1.411 1.565c.255.013 11.938.636 29.832 2.459a17.588 17.588 0 0 0 8.99 12.388 1.49 1.49 0 0 0 1.407-2.627 14.603 14.603 0 0 1-7.28-9.437 851.93 851.93 0 0 1 26.676 3.239 15.602 15.602 0 0 0 8.487 13.481 1.49 1.49 0 0 0 1.362-2.65 12.636 12.636 0 0 1-6.853-10.41 762.271 762.271 0 0 1 17.904 2.748 14.778 14.778 0 0 0 7.752 11.746c.781.573 1.954.587 2.458-.375.516-.94-.131-1.917-1.052-2.252a11.798 11.798 0 0 1-6.089-8.597c9.642 1.642 19.572 3.535 29.499 5.734a1.49 1.49 0 0 0 .643-2.913z" data-original="#993631"/><path d="M366.457 316.702a1.492 1.492 0 0 0-2.086-.299 893.531 893.531 0 0 1-24.802 17.908c-1.234-2.799-.835-6.069 1.2-8.576.518-.639.393-1.544-.246-2.062-.64-.519-1.604-.387-2.122.251a11.152 11.152 0 0 0-1.316 12.113c-5.054 3.5-10.03 6.877-14.878 10.112a10.654 10.654 0 0 1 .154-10.145l.268-.475a1.49 1.49 0 0 0-2.595-1.465l-.268.475c-2.33 4.126-2.307 9.175-.048 13.265-5.189 3.441-18.69 12.132-20.17 13.069a1.437 1.437 0 0 0-.146-.32c-2.498-4.008-2.251-9.222.613-12.975l.3-.392a1.49 1.49 0 0 0-2.366-1.811l-.301.393c-3.612 4.733-3.923 11.308-.774 16.361.067.107.147.201.234.285-24.564 15.467-41.797 25.038-42.103 25.207a1.49 1.49 0 0 0 1.441 2.608c.332-.184 20.621-11.45 48.601-29.322a14.48 14.48 0 0 0 9.257 3.342c2.003 0 4.018-.415 5.906-1.27l.45-.203a1.49 1.49 0 0 0-1.227-2.716l-.451.204c-3.697 1.674-8.008 1.215-11.268-1.064 4.722-3.034 18.739-12.304 20.601-13.56 2.369 2.808 5.768 4.361 9.299 4.361 1.435 0 2.889-.254 4.301-.78a1.49 1.49 0 0 0-1.04-2.794 9.205 9.205 0 0 1-10.089-2.459c2.992-2.03 13.254-9.143 15.311-10.596a12.17 12.17 0 0 0 8.618 3.597c1.108 0 2.225-.152 3.32-.465a1.49 1.49 0 0 0-.819-2.866c-3.053.874-6.326.077-8.648-2.016a869.166 869.166 0 0 0 17.59-12.833 1.492 1.492 0 0 0 .299-2.087z" data-original="#993631"/></g><g fill="#a44a42"><ellipse cx="330.29" cy="310.979" data-original="#a44a42" rx="4.95" ry="3.294" transform="rotate(-58 330.273 310.973)"/><ellipse cx="361.661" cy="348.741" data-original="#a44a42" rx="4.95" ry="3.294" transform="rotate(-30 361.532 348.695)"/></g><path fill="#91d728" d="M350.05 227.772s30.516 55.6 18.588 88.814l19.201-.867c0 .001 11.308-58.237-37.789-87.947z" data-original="#91d728"/><path fill="#6da52e" d="M350.05 227.772s1.821 3.323 4.392 8.805c28.815 26.935 26.487 67.624 25.084 79.518l8.313-.375s11.308-58.238-37.789-87.948z" data-original="#6da52e"/><path fill="#91d728" d="M463.499 261.156s-60.563 18.79-75.049 50.971l-13.21-13.965s32.309-49.75 88.259-37.006z" data-original="#91d728"/><path fill="#6da52e" d="M463.499 261.156s-3.618 1.126-9.274 3.282c-39.433-.647-66.015 30.24-73.266 39.77l-5.719-6.046s32.309-49.75 88.259-37.006z" data-original="#6da52e"/><path fill="#91d728" d="M452.645 286.424s-62.195 12.355-79.964 42.845l-11.678-15.27s37.331-46.1 91.642-27.575z" data-original="#91d728"/><path fill="#6da52e" d="M452.645 286.424s-3.715.741-9.566 2.294c-39.149-4.767-68.814 23.172-77.02 31.892l-5.056-6.611s37.331-46.1 91.642-27.575z" data-original="#6da52e"/><path fill="#91d728" d="M328.638 254.02s43.057 46.563 39.516 81.678l18.421-5.487s-3.112-59.245-57.937-76.191z" data-original="#91d728"/><path fill="#6da52e" d="M328.638 254.02s2.57 2.784 6.391 7.481c34.473 19.162 42.056 59.206 43.571 71.086l7.975-2.376s-3.112-59.245-57.937-76.191z" data-original="#6da52e"/><path fill="#ffcf00" d="M375.04 218.489c-5.884 33.05 20.418 30.961 20.418 30.961s6.793-9.209 1.373-19.816c-4.325-9.361-15.029-9.145-19.519-19.633-.976 2.765-1.758 5.6-2.272 8.488z" data-original="#ffcf00"/><path fill="#feac01" d="M396.83 229.634c-4.325-9.36-15.027-9.145-19.517-19.63 1.484 9.04 6.283 29.502 18.143 39.447h.002c0-.001 6.793-9.21 1.372-19.817z" data-original="#feac01"/><path fill="#ffcf00" d="M387.901 185.919c-5.884 33.05 20.418 30.961 20.418 30.961s6.793-9.209 1.373-19.816c-4.325-9.361-15.029-9.145-19.519-19.633-.975 2.766-1.758 5.601-2.272 8.488z" data-original="#ffcf00"/><path fill="#feac01" d="M409.692 197.064c-4.325-9.36-15.027-9.145-19.517-19.63 1.484 9.04 6.283 29.502 18.143 39.447h.002c-.001-.001 6.792-9.209 1.372-19.817z" data-original="#feac01"/><path fill="#ffcf00" d="M404.428 153.866c-5.884 33.05 20.418 30.961 20.418 30.961s6.793-9.209 1.373-19.816c-4.325-9.361-15.029-9.145-19.519-19.633-.976 2.766-1.758 5.601-2.272 8.488z" data-original="#ffcf00"/><path fill="#feac01" d="M426.218 165.011c-4.325-9.36-15.027-9.145-19.517-19.63 1.484 9.04 6.283 29.502 18.143 39.447h.002c-.001-.001 6.792-9.209 1.372-19.817z" data-original="#feac01"/><path fill="#ffcf00" d="M463.315 137.799c.057 33.57-25.482 26.944-25.482 26.944s-5.091-10.249 2.088-19.754c5.885-8.468 16.388-6.396 22.63-15.944.481 2.893.759 5.821.764 8.754z" data-original="#ffcf00"/><path fill="#feac01" d="M439.921 144.989c5.884-8.467 16.386-6.396 22.629-15.942-3.03 8.645-11.309 27.962-24.715 35.696h-.002c-.001 0-5.092-10.248 2.088-19.754z" data-original="#feac01"/><path fill="#ffcf00" d="M461.47 182.273c-21.528 25.753-36.835 4.256-36.835 4.256s2.686-11.124 14.293-13.789c9.949-2.703 16.664 5.638 27.582 2.337-1.491 2.524-3.159 4.946-5.04 7.196z" data-original="#ffcf00"/><path fill="#feac01" d="M438.928 172.739c9.948-2.703 16.663 5.636 27.579 2.338-7.876 4.674-26.632 14.149-41.871 11.453l-.001-.001s2.686-11.125 14.293-13.79z" data-original="#feac01"/><path fill="#ffcf00" d="M445.569 212.371c-21.528 25.753-36.835 4.256-36.835 4.256s2.686-11.124 14.293-13.789c9.949-2.703 16.664 5.638 27.582 2.337-1.491 2.524-3.159 4.946-5.04 7.196z" data-original="#ffcf00"/><path fill="#feac01" d="M423.027 202.838c9.948-2.703 16.663 5.636 27.579 2.338-7.876 4.674-26.632 14.149-41.871 11.453l-.001-.001c0-.001 2.686-11.125 14.293-13.79z" data-original="#feac01"/><path fill="#ffcf00" d="M433.151 244.683c-21.528 25.753-36.835 4.256-36.835 4.256s2.686-11.124 14.293-13.789c9.949-2.703 16.664 5.638 27.582 2.337-1.491 2.524-3.16 4.946-5.04 7.196z" data-original="#ffcf00"/><path fill="#feac01" d="M410.609 235.15c9.948-2.703 16.663 5.636 27.579 2.338-7.876 4.674-26.632 14.149-41.871 11.453l-.001-.001c-.001-.001 2.685-11.125 14.293-13.79z" data-original="#feac01"/><path fill="#ffcf00" d="M355.175 99.266c-5.884 33.05 20.418 30.961 20.418 30.961s6.793-9.209 1.373-19.816c-4.325-9.361-15.029-9.145-19.519-19.633-.975 2.765-1.758 5.601-2.272 8.488z" data-original="#ffcf00"/><path fill="#feac01" d="M376.966 110.411c-4.325-9.36-15.027-9.145-19.517-19.63 1.484 9.04 6.283 29.502 18.143 39.447h.002c-.001-.001 6.792-9.209 1.372-19.817z" data-original="#feac01"/><path fill="#ffcf00" d="M368.037 66.696c-5.884 33.05 20.418 30.961 20.418 30.961s6.793-9.209 1.373-19.816c-4.325-9.361-15.029-9.145-19.519-19.633-.976 2.766-1.758 5.601-2.272 8.488z" data-original="#ffcf00"/><path fill="#feac01" d="M389.827 77.841c-4.325-9.36-15.027-9.145-19.517-19.63 1.484 9.04 6.283 29.502 18.143 39.447h.002s6.793-9.209 1.372-19.817z" data-original="#feac01"/><path fill="#ffcf00" d="M384.563 34.643c-5.884 33.05 20.418 30.961 20.418 30.961s6.793-9.209 1.373-19.816c-4.325-9.361-15.029-9.145-19.519-19.633-.976 2.766-1.758 5.601-2.272 8.488z" data-original="#ffcf00"/><path fill="#feac01" d="M406.353 45.788c-4.325-9.36-15.027-9.145-19.517-19.63 1.484 9.04 6.283 29.502 18.143 39.447h.002s6.793-9.209 1.372-19.817z" data-original="#feac01"/><path fill="#ffcf00" d="M443.45 18.576c.057 33.57-25.482 26.944-25.482 26.944s-5.091-10.249 2.088-19.754c5.885-8.468 16.388-6.396 22.63-15.944.481 2.893.759 5.821.764 8.754z" data-original="#ffcf00"/><path fill="#feac01" d="M420.056 25.767c5.884-8.467 16.386-6.396 22.629-15.942-3.03 8.645-11.309 27.962-24.715 35.696h-.002c0-.001-5.091-10.249 2.088-19.754z" data-original="#feac01"/><path fill="#ffcf00" d="M441.605 63.05c-21.528 25.753-36.835 4.256-36.835 4.256s2.686-11.124 14.293-13.789c9.949-2.703 16.664 5.638 27.582 2.337-1.491 2.524-3.159 4.946-5.04 7.196z" data-original="#ffcf00"/><path fill="#feac01" d="M419.064 53.516c9.948-2.703 16.663 5.636 27.579 2.338-7.876 4.674-26.632 14.149-41.871 11.453l-.001-.001c-.001 0 2.685-11.124 14.293-13.79z" data-original="#feac01"/><path fill="#ffcf00" d="M425.704 93.148c-21.528 25.753-36.835 4.256-36.835 4.256s2.686-11.124 14.293-13.789c9.949-2.703 16.664 5.638 27.582 2.337-1.491 2.525-3.159 4.947-5.04 7.196z" data-original="#ffcf00"/><path fill="#feac01" d="M403.163 83.615c9.948-2.703 16.663 5.636 27.579 2.338-7.876 4.674-26.632 14.149-41.871 11.453l-.001-.001c-.001-.001 2.685-11.125 14.293-13.79z" data-original="#feac01"/><path fill="#ffcf00" d="M413.286 125.46c-21.528 25.753-36.835 4.256-36.835 4.256s2.686-11.124 14.293-13.789c9.949-2.703 16.664 5.638 27.582 2.337-1.491 2.525-3.159 4.947-5.04 7.196z" data-original="#ffcf00"/><path fill="#feac01" d="M390.744 115.927c9.948-2.703 16.663 5.636 27.579 2.338-7.876 4.674-26.632 14.149-41.871 11.453l-.001-.001c0-.001 2.686-11.125 14.293-13.79z" data-original="#feac01"/><path fill="#91d728" d="M52.624 157.757c-5.679-13.472 13.272-11.714 19.409-10.821 1.61.234 3.322-.308 4.259-1.64 1.47-2.087.323-4.484-1.23-6.387-1.566-1.918-3.626-3.393-5.86-4.46-47.739-22.795-43.152-41.903-34.798-52.105 2.699-3.297 3.289-7.878 1.293-11.643C20.549 42.126 18.976 13.87 32.953 5.13c13.972-8.737 38.646 5.05 57.668 31.182 2.444 3.357 6.782 4.848 10.758 3.657 13.334-3.994 34.826-1.995 34.384 52.713-.021 2.542.385 5.114 1.457 7.419 1.031 2.215 2.677 4.268 5.182 3.86 1.596-.26 2.833-1.54 3.325-3.082 1.875-5.881 8.61-23.771 18.235-12.746 3.917 4.487 5.321 10.676 4.071 16.501-1.523 7.101-4.894 18.553-12.289 32.425 0 0-2.234 6.083 2.654 8.831 6.224 3.498 10.923 9.287 11.759 16.382 1.241 10.53.051 25.713-10.566 42.772l-.048.03c-15.935 1.652-28.168-1.568-36.99-5.849-8.646-4.195-13.922-12.601-15.725-22.046-.912-4.782-6.659-5.368-6.659-5.368-15.69.57-27.448-1.416-34.495-3.158-5.784-1.43-10.734-5.402-13.05-10.896z" data-original="#91d728"/><path fill="#fff" d="M39.785 95.106c1.999-2.041 5.406-1.536 6.728.997 2.661 5.094 5.586 10.23 15.844 16.57a2.593 2.593 0 0 1 1.018 3.244 2.593 2.593 0 0 1-3.307 1.371c-12.138-4.739-16.753-10.871-20.766-16.888a4.216 4.216 0 0 1 .483-5.294zM34.889 30.151c2.651-.74 5.312 1.165 5.448 3.915.306 6.165 1.273 12.57 6.438 22.074a3.02 3.02 0 0 1-.422 3.485c-1.297 1.413-3.562 1.263-4.683-.293-6.865-9.534-9.06-17.458-9.902-24.555-.248-2.098 1.087-4.058 3.121-4.626z" data-original="#ffffff" opacity=".5"/><g fill="#6da52e"><path d="M159.348 205.09c-15.839 1.605-28.011-1.603-36.796-5.866-8.646-4.195-13.922-12.601-15.725-22.046-.912-4.782-6.659-5.368-6.659-5.368-15.69.57-27.448-1.416-34.495-3.158-5.784-1.43-10.734-5.402-13.049-10.895-3.12-7.4 1.196-10.2 6.733-11.077-.025 1.288.284 2.799 1.037 4.584 2.315 5.494 7.265 9.466 13.049 10.895 7.047 1.742 18.805 3.728 34.495 3.158 0 0 5.746.586 6.659 5.368 1.803 9.444 7.079 17.851 15.725 22.046 5.862 2.844 13.244 5.207 22.208 5.993a347.16 347.16 0 0 0 6.818 6.366zM137.219 100.1c1.031 2.215 2.677 4.268 5.182 3.86.248-.04.483-.113.712-.2-1.529 2.998-2.628 6.106-3.228 7.987-.492 1.542-1.729 2.823-3.325 3.082-2.504.408-4.151-1.645-5.182-3.86-1.072-2.304-1.478-4.877-1.457-7.419.443-54.708-21.05-56.707-34.384-52.713-3.976 1.191-8.314-.3-10.758-3.657C65.758 21.05 41.084 7.263 27.112 15.999a16.471 16.471 0 0 0-2.673 2.099c1.421-5.783 4.235-10.294 8.514-12.969C46.924-3.607 71.598 10.18 90.62 36.312c2.444 3.357 6.782 4.848 10.758 3.657 13.334-3.994 34.826-1.995 34.384 52.713-.02 2.541.386 5.114 1.457 7.418zM164.316 173.142c-.836-7.095-5.535-12.884-11.759-16.382-4.888-2.747-2.654-8.831-2.654-8.831 7.395-13.872 10.765-25.325 12.289-32.426 1.25-5.825-.154-12.014-4.071-16.501-4.595-5.264-8.53-3.931-11.593-.466 2.603-7.148 8.873-20.21 17.434-10.404 3.917 4.487 5.321 10.676 4.071 16.501-1.523 7.101-4.894 18.553-12.289 32.426 0 0-2.234 6.083 2.654 8.831 6.224 3.498 10.923 9.287 11.759 16.382 1.24 10.53.051 25.713-10.566 42.772l-.048.03-.135.012c5.36-12.611 5.878-23.703 4.908-31.944z" data-original="#6da52e"/><ellipse cx="84.811" cy="74.038" data-original="#6da52e" rx="4.44" ry="7.106" transform="rotate(-19.01 84.661 73.933)"/><ellipse cx="113.672" cy="121.097" data-original="#6da52e" rx="4.44" ry="7.106" transform="rotate(-19.01 113.467 120.92)"/></g><path fill="#91d728" d="M53.613 258.868c-7.932-12.28 11.037-13.842 17.235-14.028 1.627-.049 3.218-.881 3.91-2.355 1.085-2.311-.461-4.472-2.32-6.077-1.875-1.617-4.16-2.712-6.545-3.374-50.971-14.156-49.77-33.771-43.314-45.269 2.086-3.715 1.871-8.33-.748-11.691-19.879-25.509-26.333-53.063-14.086-64.098 12.243-11.031 38.935-1.739 62.205 20.692 2.989 2.882 7.521 3.596 11.23 1.732 12.438-6.25 33.951-8.014 43.012 45.94.421 2.507 1.267 4.97 2.723 7.053 1.4 2.003 3.377 3.738 5.773 2.901 1.527-.533 2.523-2.009 2.739-3.613.826-6.117 4.353-24.905 15.745-15.719 4.637 3.739 7.093 9.589 6.874 15.544-.267 7.257-1.599 19.122-6.473 34.067 0 0-1.144 6.379 4.146 8.236 6.737 2.364 12.37 7.249 14.425 14.091 3.05 10.155 4.514 25.314-2.98 43.957l-.042.038c-15.406 4.395-28.013 3.348-37.443.665-9.243-2.629-15.898-9.992-19.313-18.979-1.729-4.551-7.49-4.13-7.49-4.13-15.353 3.287-27.277 3.374-34.519 2.882-5.946-.405-11.51-3.457-14.744-8.465z" data-original="#91d728"/><path fill="#fff" d="M30.093 199.399c1.614-2.358 5.057-2.451 6.799-.187 3.505 4.555 7.277 9.104 18.479 13.566a2.591 2.591 0 0 1 1.565 3.018 2.59 2.59 0 0 1-3.018 1.924c-12.777-2.559-18.386-7.796-23.382-13.024a4.216 4.216 0 0 1-.443-5.297zM13.996 136.281c2.482-1.189 5.433.225 6.045 2.909 1.372 6.018 3.436 12.158 10.173 20.621a3.024 3.024 0 0 1 .19 3.506c-1.032 1.617-3.289 1.863-4.663.524-8.416-8.196-11.953-15.619-14.014-22.462-.61-2.023.364-4.185 2.269-5.098z" data-original="#ffffff" opacity=".5"/><g fill="#6da52e"><path d="M166.933 286.944c-15.319 4.332-27.863 3.287-37.255.615-9.243-2.63-15.898-9.992-19.313-18.979-1.729-4.551-7.49-4.13-7.49-4.13-15.353 3.287-27.277 3.374-34.519 2.882-5.944-.403-11.509-3.455-14.743-8.463-4.357-6.746-.593-10.253 4.708-12.079.199 1.273.766 2.707 1.817 4.335 3.234 5.008 8.798 8.06 14.742 8.463 7.242.492 19.166.405 34.519-2.882 0 0 5.761-.421 7.49 4.13 3.415 8.988 10.071 16.35 19.313 18.979 6.267 1.783 13.947 2.827 22.911 2.044a344.503 344.503 0 0 0 7.82 5.085zM126.914 187.393c1.4 2.003 3.377 3.738 5.773 2.901a3.66 3.66 0 0 0 .667-.321c-.985 3.219-1.528 6.47-1.792 8.426-.217 1.604-1.213 3.08-2.739 3.613-2.396.837-4.373-.899-5.773-2.901-1.455-2.083-2.302-4.546-2.723-7.053-9.061-53.954-30.574-52.189-43.012-45.94-3.709 1.863-8.24 1.149-11.23-1.733-23.27-22.431-49.962-31.722-62.205-20.692a16.457 16.457 0 0 0-2.268 2.532c.395-5.942 2.384-10.873 6.133-14.251 12.243-11.031 38.935-1.739 62.205 20.692 2.989 2.882 7.521 3.596 11.23 1.733 12.438-6.25 33.951-8.014 43.012 45.94.42 2.508 1.267 4.971 2.722 7.054zM166.278 254.618c-2.055-6.842-7.687-11.727-14.425-14.091-5.291-1.857-4.146-8.236-4.146-8.236 4.874-14.946 6.206-26.81 6.473-34.067.219-5.954-2.237-11.805-6.874-15.544-5.439-4.386-9.083-2.39-11.498 1.555 1.322-7.491 5.23-21.444 15.363-13.274 4.637 3.739 7.093 9.589 6.874 15.544-.267 7.258-1.599 19.122-6.473 34.067 0 0-1.144 6.379 4.146 8.236 6.737 2.364 12.37 7.249 14.425 14.091 3.05 10.155 4.514 25.314-2.98 43.957l-.042.038c-.044.012-.087.022-.131.035 3.09-13.35 1.675-24.363-.712-32.311z" data-original="#6da52e"/><ellipse cx="70.777" cy="170.83" data-original="#6da52e" rx="4.44" ry="7.106" transform="rotate(-29 70.723 170.727)"/><ellipse cx="107.37" cy="212.161" data-original="#6da52e" rx="4.44" ry="7.106" transform="rotate(-29 107.29 212.033)"/></g><path fill="#915efd" d="M367.88 46.334 90.77 56.455 76.436 350.967c13.704-15.957 19.806-14.6 19.806-14.6s17.653 8.52 34.783 71.061l283.536-47.49z" data-original="#915efd"/><path fill="#fc09b2" d="m100.477 147.839 283.779-19.419-11.991-82.246L90.77 56.455z" data-original="#fc09b2"/><path fill="#bd0a95" d="M125.624 84.855c3.778-15.089-.505-24.466-6.389-29.44l-28.465 1.04 9.707 91.384 62.5-4.277c-13.688-23.164-48.321-14.902-37.353-58.707z" data-original="#bd0a95"/><path fill="#fff" d="M357.145 64.706a3.298 3.298 0 0 0-.95 2.632c1.363 15.005 1.997 30.192 3.518 42.337.308 2.458 2.639 4.133 5.069 3.657a4.279 4.279 0 0 0 3.4-4.889c-1.962-12.086-3.808-25.917-5.424-41.736-.283-2.766-3.649-3.966-5.613-2.001z" data-original="#ffffff" opacity=".5"/><path fill="#fff" d="m379.498 140.319-277.923 19.018s12.353 225.606 54.097 225.435l268.934-42.837c0 .001-30.218-43.865-45.108-201.616z" data-original="#ffffff"/><path fill="#fff" d="m384.256 128.42-283.78 19.419s18.209 213.307 59.953 213.135l268.934-42.837c.001.001-30.217-31.966-45.107-189.717z" data-original="#ffffff"/><path fill="#e3d7fe" d="M361.047 152.63a4.897 4.897 0 0 0-1.41 3.905c2.022 22.264 2.962 44.797 5.219 62.817.457 3.647 3.915 6.133 7.521 5.426a6.349 6.349 0 0 0 5.045-7.255c-2.911-17.933-5.65-38.454-8.047-61.926-.419-4.102-5.414-5.883-8.328-2.967zM262.651 305.806c-63.755 5.218-104.732-50.442-91.623-109.755 5.038-22.793-.662-41.968-8.052-52.489l-62.5 4.277s18.209 213.307 59.953 213.135l224.057-35.688c-18.134-27.795-83.073-23.274-121.835-19.48z" data-original="#e3d7fe"/><ellipse cx="105.308" cy="365.807" fill="#ffcf00" data-original="#ffcf00" rx="53.111" ry="80.725"/><ellipse cx="52.124" cy="371.456" fill="#ffcf00" data-original="#ffcf00" rx="47.722" ry="81.654"/><path fill="#feac01" d="M30.113 399.213c-20.76-51.59 5.867-98.562 5.867-98.562 1.194-2.498 1.79-4.908 1.976-7.191-19.438 10.326-33.555 41.34-33.555 77.996 0 34.008 12.153 63.149 29.431 75.43 5.287-26.903-3.719-47.673-3.719-47.673z" data-original="#feac01"/><ellipse cx="155.942" cy="371.456" fill="#ffcf00" data-original="#ffcf00" rx="47.722" ry="81.654"/><path fill="#feac01" d="M166.419 291.8c-.079 3.346.657 6.997 2.864 10.737 0 0 30.619 44.471 14.433 97.675 0 0-5.685 17.07-1.531 39.433 12.937-14.606 21.478-39.685 21.478-68.19.001-38.934-15.93-71.481-37.244-79.655z" data-original="#feac01"/><path fill="#91d728" d="m82.891 316.943 49.862-2.383c-14.323-18.965-15.209-56.643 15.267-83.516l-9.612-8.168c-47.276 28.145-60.029 80.482-55.517 94.067z" data-original="#91d728"/><path fill="#6da52e" d="M108.983 286.105c-2.032-9.058-.234-18.588 4.873-26.339 7.449-11.306 17.495-22.465 30.592-31.756l-6.041-5.134c-47.276 28.144-60.029 80.481-55.516 94.066l24.86-1.188c3.565-12.309 2.823-22.557 1.232-29.649z" data-original="#6da52e"/><ellipse cx="69.168" cy="383.855" fill="#ffcf00" data-original="#ffcf00" rx="47.722" ry="81.654"/><path fill="#feac01" d="M44.376 398.637c-9.95-23.462-1.887-58.703 8.748-77.414 3.814-6.711 3.874-11.815 2.393-15.613-19.702 10.05-34.07 41.269-34.07 78.245 0 36.073 13.676 66.66 32.637 77.466 10.501-24.005-9.708-62.684-9.708-62.684z" data-original="#feac01"/><ellipse cx="138.321" cy="383.855" fill="#ffcf00" data-original="#ffcf00" rx="47.722" ry="81.654"/><path fill="#feac01" d="M186.043 383.855c0-34.685-12.645-64.298-30.473-76.133-1.421 3.867-1.238 9.027 2.873 15.705 11.281 18.328 20.568 53.266 11.444 77.062 0 0-15.543 32.465-9.912 56.124 15.468-13.505 26.068-41.004 26.068-72.758z" data-original="#feac01"/><ellipse cx="103.745" cy="383.855" fill="#ffcf00" data-original="#ffcf00" rx="47.722" ry="81.654"/><path fill="#feac01" d="M82.665 400.276c-17.047-35.676.162-61.925.162-61.925 3.913-11.961 2.804-21.294.233-28.101-15.997 13.186-27.037 41.19-27.037 73.606 0 36.103 13.7 66.713 32.685 77.494l.119-.058c7.777-3.817 11.845-12.515 10.225-21.027-3.772-19.826-16.387-39.989-16.387-39.989z" data-original="#feac01"/><path fill="#fff" d="M112.179 321.962c-4.451.907-6.568 6.037-4.034 9.808 8.693 12.934 17.76 28.769 20.53 48.737a4.433 4.433 0 0 0 4.385 3.823c2.702.002 4.776-2.395 4.409-5.072-3.052-22.251-9.637-41.313-18.774-54.698-1.436-2.104-4.02-3.107-6.516-2.598z" data-original="#ffffff" opacity=".5"/><ellipse cx="216.368" cy="199.246" fill="#fff" data-original="#ffffff" rx="14.691" ry="21.833"/><path d="M216.368 222.569c-8.923 0-16.181-10.463-16.181-23.324 0-12.86 7.259-23.324 16.181-23.324s16.181 10.463 16.181 23.324-7.258 23.324-16.181 23.324zm0-43.666c-7.279 0-13.202 9.126-13.202 20.343s5.922 20.343 13.202 20.343c7.279 0 13.201-9.126 13.201-20.343s-5.922-20.343-13.201-20.343z" data-original="#000000"/><path d="M216.368 192.1c-3.541 0-6.411 4.265-6.411 9.527s2.87 9.527 6.411 9.527 6.411-4.265 6.411-9.527c0-5.261-2.87-9.527-6.411-9.527zm0 10.586c-.984 0-1.781-1.185-1.781-2.646 0-1.462.797-2.646 1.781-2.646s1.781 1.185 1.781 2.646-.797 2.646-1.781 2.646z" data-original="#000000"/><ellipse cx="304.015" cy="192.294" fill="#fff" data-original="#ffffff" rx="14.691" ry="21.833"/><path d="M304.015 215.617c-8.922 0-16.181-10.463-16.181-23.324 0-12.86 7.259-23.324 16.181-23.324s16.181 10.463 16.181 23.324-7.259 23.324-16.181 23.324zm0-43.666c-7.279 0-13.201 9.126-13.201 20.343s5.922 20.343 13.201 20.343 13.201-9.126 13.201-20.343-5.922-20.343-13.201-20.343z" data-original="#000000"/><path d="M304.015 185.148c-3.541 0-6.411 4.265-6.411 9.527s2.87 9.527 6.411 9.527 6.411-4.265 6.411-9.527c0-5.261-2.87-9.527-6.411-9.527zm0 10.586c-.984 0-1.781-1.185-1.781-2.646 0-1.462.797-2.646 1.781-2.646s1.781 1.185 1.781 2.646-.797 2.646-1.781 2.646z" data-original="#000000"/><path fill="#fff" d="M241.061 243.741c1.993 18.969 15.366 33.111 29.868 31.586s24.644-18.138 22.65-37.108a51.233 51.233 0 0 1-52.518 5.522z" data-original="#ffffff"/><path fill="#e3d7fe" d="M265.189 250.278a25.502 25.502 0 0 0-.821-1.759 51.176 51.176 0 0 1-23.308-4.777c1.993 18.969 15.366 33.111 29.868 31.586 6.37-.67 11.896-4.251 15.925-9.663-9.21-.457-17.816-6.183-21.664-15.387z" data-original="#e3d7fe"/><path d="M268.802 276.929c-14.397 0-27.25-14.262-29.223-33.032-.153-1.113 1.11-2.013 2.112-1.506a49.64 49.64 0 0 0 50.992-5.361c.876-.704 2.296-.086 2.378 1.034 2.285 17.417-7.77 38.773-26.259 38.865zm-25.912-30.764c2.775 16.812 14.877 29.04 27.883 27.68 14.566-1.555 22.487-18.621 21.521-32.875a52.587 52.587 0 0 1-49.404 5.195zM311.345 240.091c-.07 0-.142-.005-.213-.015-8.983-1.288-11.259-9.339-11.207-13.416a1.49 1.49 0 0 1 1.489-1.471h.019a1.49 1.49 0 0 1 1.471 1.507c-.002.402.049 9.197 8.651 10.431 1.794.215 1.578 3.007-.21 2.964zM223.784 251.912c-1.515.056-2.069-2.193-.658-2.828 8.616-4.233 5.648-13.488 5.518-13.88a1.49 1.49 0 0 1 2.823-.954c1.413 4.168 1.762 13.191-7.027 17.508a1.48 1.48 0 0 1-.656.154z" data-original="#000000"/><path d="M439.654 196.419c7.668.298 15.391-4.138 22.953-13.184 1.837-2.199 3.58-4.687 5.18-7.395.708-1.112-.467-2.609-1.714-2.184-10.315 3.138-17.099-5.197-27.484-2.363a20.85 20.85 0 0 0-4.594 1.641 250.843 250.843 0 0 1 4.484-6.534c5.448.825 11.441.553 17.215-3.745 6.066-4.703 9.131-13.066 9.111-24.857-.005-2.866-.269-5.892-.784-8.995-.172-1.307-2.035-1.699-2.717-.571-5.885 9.036-16.438 7.014-22.572 15.861-6.519 8.631-3.712 17.702-2.602 20.473a257.024 257.024 0 0 0-6.362 9.389c.041-2.896-.528-6.141-2.265-9.54-4.505-9.779-15.249-9.619-19.476-19.541-.476-1.229-2.378-1.166-2.775.091-1.046 2.966-1.831 5.901-2.333 8.722-2.066 11.609-.5 20.377 4.657 26.062 4.442 4.708 9.624 6.237 14.628 6.595a298.643 298.643 0 0 0-9.042 16.937l-.001-.002c-.262-2.162-.904-4.465-2.117-6.839-4.684-9.919-15.527-9.863-19.809-20.036a1143.079 1143.079 0 0 1-4.46-37.632 20.7 20.7 0 0 0 4.701.829c7.668.298 15.391-4.139 22.953-13.184 1.837-2.199 3.58-4.687 5.18-7.395.708-1.112-.467-2.609-1.714-2.185-10.315 3.138-17.099-5.196-27.484-2.363a20.264 20.264 0 0 0-6.303 2.602l-.449-3.078a308.822 308.822 0 0 1 5.525-13.84c3.513 3.678 8.053 6.75 14.612 7.134 7.668.298 15.391-4.138 22.953-13.184 1.837-2.199 3.58-4.687 5.18-7.395.708-1.112-.467-2.609-1.714-2.184-10.315 3.138-17.099-5.197-27.484-2.363a20.35 20.35 0 0 0-6.517 2.73c2.619-5.329 5.594-10.852 8.289-15.559 3.604 3.992 8.299 7.452 15.286 7.86 7.669.298 15.391-4.138 22.953-13.184 1.837-2.199 3.58-4.687 5.18-7.395.708-1.112-.467-2.609-1.714-2.184-10.315 3.138-17.099-5.197-27.484-2.363a20.85 20.85 0 0 0-4.594 1.641 250.843 250.843 0 0 1 4.484-6.534c5.448.825 11.44.553 17.215-3.745 6.066-4.703 9.131-13.066 9.111-24.857-.005-2.866-.269-5.892-.784-8.995-.172-1.307-2.035-1.699-2.717-.571-5.885 9.036-16.438 7.014-22.572 15.861-6.519 8.631-3.712 17.702-2.602 20.473a256.158 256.158 0 0 0-6.362 9.389c.041-2.896-.528-6.141-2.265-9.54-4.505-9.779-15.249-9.619-19.476-19.541-.476-1.229-2.378-1.166-2.775.091-1.046 2.967-1.831 5.901-2.333 8.722-2.066 11.609-.5 20.377 4.657 26.062 4.442 4.708 9.624 6.237 14.628 6.595a298.643 298.643 0 0 0-9.042 16.937c-.261-2.163-.904-4.466-2.118-6.842-3.278-7.084-9.602-8.891-14.822-13.297l-2.618-17.96a1.491 1.491 0 0 0-1.529-1.274l-35.483 1.296c-7.012-20.581-19.935-33.959-30.479-30.934-8.577 2.461-12.981 15.41-11.154 32.454l-44.037 1.608c-7.016-20.555-19.926-33.911-30.462-30.888-8.569 2.458-12.974 15.386-11.159 32.408l-38.525 1.407c-6.999-20.677-19.963-34.135-30.536-31.102-7.725 2.216-12.06 12.944-11.511 27.507-5.988-9.873-15.968-13.514-27.914-9.9-3.372 1.01-7.039-.239-9.127-3.106C71.862 8.009 46.771-5.267 32.163 3.866 17.549 13.005 18.482 41.407 34.381 71.4c1.686 3.179 1.243 7.105-1.13 10.001-6.61 7.996-7.338 17.252-2.466 25.631-9.838-2.404-18.345-1.29-24.038 3.838-12.806 11.539-6.956 39.347 13.909 66.122 2.211 2.838 2.456 6.781.624 10.045-3.718 6.621-4.341 13.35-1.801 19.46 4.739 11.399 20.221 20.811 46.015 27.975 2.363.656 4.372 1.688 5.971 3.066 3.057 2.386 2.809 5.483-.662 5.813-6.123.184-16.84 1.339-19.815 7.005-3.632 8.986 8.43 18.291 17.266 18.463 2.872.194 6.467.292 10.68.152l-1.265 25.998a58.334 58.334 0 0 0-2.868 2.737c-6.79-5.992-14.5-9.394-22.678-9.394-27.136 0-49.212 37.299-49.212 83.145 0 39.719 16.574 72.998 38.649 81.19C49.438 461.7 58.943 467 69.168 467c6.077 0 11.89-1.902 17.267-5.324 5.388 3.432 11.219 5.324 17.309 5.324 6.088 0 11.918-1.891 17.305-5.322 5.378 3.423 11.194 5.322 17.272 5.322 10.116 0 19.526-5.189 27.354-14.066 17.521-5.966 31.699-27.686 37.109-56.014l41.643-6.975c-10.631 12.663-20.064 28.655-23.38 47.662-.17.856.528 1.725 1.4 1.745l11.063.506.069.001a1.49 1.49 0 0 0 1.467-1.234c2.715-15.564 9.754-28.75 18.18-39.574 1.967 27.986 36.786 63.33 37.228 63.591 1.112.709 2.6-.456 2.194-1.698-4.592-17.795 4.822-29.008 8.672-32.706 13.965 34.218 48.228 34.719 48.579 34.72h.004a1.49 1.49 0 0 0 1.348-.855c1.936-4.111-1.279-17.616-2.002-20.502-.107-.839.109-1.464.694-2.019 4.665-4.427 26.002-1.309 33.829.265.837.186 1.711-.46 1.776-1.315 1.582-15.994 35.324-19.126 42.072-19.592 1.9-.086 1.731-3.092-.137-2.977-19.262.439-31.04-18.51-31.157-18.702a1.495 1.495 0 0 0-.985-.687c-5.239-1.027-8.915-2.922-10.629-5.48-1.383-2.063-1.045-3.866-1.034-3.922.437-1.932.039-3.766-1.153-5.305-4.269-5.514-17.762-6.078-19.27-6.123-5.109-.288-8.251-1.397-9.509-4.112l61.059-10.227a1.491 1.491 0 0 0 1.228-1.689l-2.168-14.564 10.974-1.748c1.052-.137 1.619-1.459.994-2.316-.104-.152-3.785-5.728-9.153-19.424l12.917-2.058c1.148-.147 1.668-1.672.852-2.492-.113-.121-4.418-4.992-10.519-19.291 17.408-6.758 32.699-9.88 33.005-9.941 1.461-.243 1.607-2.439.19-2.872-10.607-3.617-20.554-4.757-29.642-4.336 19.718-11.541 40.107-17.99 40.456-18.098 1.429-.394 1.343-2.594-.111-2.876-22.375-5.097-40.945-.197-54.718 6.869a409.042 409.042 0 0 1-2.348-8.543c1.412.409 2.922.697 4.577.794 7.669.297 15.391-4.139 22.953-13.184 1.837-2.199 3.58-4.687 5.18-7.395.708-1.112-.467-2.609-1.714-2.185-10.315 3.138-17.099-5.196-27.484-2.363-3.504.804-6.247 2.311-8.385 4.065l-.004-.02a309.955 309.955 0 0 1 7.166-18.358c3.513 3.676 8.051 6.747 14.608 7.131 7.668.298 15.391-4.138 22.953-13.184 1.837-2.199 3.58-4.687 5.18-7.395.708-1.112-.467-2.609-1.714-2.184-10.315 3.138-17.099-5.197-27.484-2.363a20.34 20.34 0 0 0-6.517 2.73c2.619-5.329 5.594-10.852 8.289-15.559 3.605 3.995 8.301 7.454 15.288 7.863zm1.49-50.579c5.247-7.294 14.328-6.492 20.402-13.125 1.308 10.499-1.355 23.373-7.655 27.566-5.636 4.387-12.793 3.554-15.003 3.159-.915-2.28-3.385-10.129 2.256-17.6zM421.279 26.617c5.247-7.294 14.328-6.492 20.402-13.125 1.308 10.499-1.355 23.373-7.655 27.566-5.636 4.387-12.793 3.554-15.003 3.159-.914-2.28-3.385-10.129 2.256-17.6zm-1.831 28.343c8.706-2.213 15.148 4.239 24.063 3.064-5.744 8.884-16.057 17.033-23.578 16.195-7.137-.263-12.084-5.503-13.523-7.227.764-2.335 3.916-9.936 13.038-12.032zm-29.549 3.541c-5.476-5.215-5.865-18.373-2.754-28.477 4.831 7.587 14.24 8.225 17.814 16.469 4.107 9.476-.579 17.142-.923 17.724-2.333-.005-9.404-.478-14.137-5.716zm1.236 58.863c8.706-2.213 15.148 4.239 24.063 3.064-5.745 8.884-16.057 17.033-23.578 16.194-1.893-.07-3.622-.497-5.178-1.11-.238-2.381-1.856-15.161-1.856-15.161 1.731-1.286 3.88-2.374 6.549-2.987zm-8.356-9.403-1.395-9.569c1.949.495 3.706.69 4.996.756a310.68 310.68 0 0 0-3.601 8.813zm9.559-14.932c1.885-3.03 5.271-6.63 11.116-7.974 8.706-2.213 15.148 4.239 24.063 3.064-5.744 8.884-16.057 17.033-23.578 16.195-7.043-.26-11.946-5.359-13.457-7.15.62-1.407 1.238-2.787 1.856-4.135zm-12.605-23.065c7.814 3.286 13.005 14.876 9.877 21.87a312.832 312.832 0 0 0-1.905 4.251l-.063.106c-1.205-.012-3.827-.144-6.735-1.069l-3.934-26.987a85.459 85.459 0 0 0 2.76 1.829zm-72.662-52.052c8.557-2.454 20.104 10.135 26.529 28.183l-35.518 1.297c-1.696-15.422 1.933-27.456 8.989-29.48zm-85.653 3.174c8.55-2.452 20.085 10.114 26.513 28.137l-35.507 1.297c-1.684-15.4 1.945-27.412 8.994-29.434zm-52.08 35.903c3.373 11.765 3.889 23.219 1.99 31.401a15.295 15.295 0 0 0-7.251-1.822c-8.489 0-15.395 6.908-15.395 15.4s6.906 15.4 15.395 15.4 15.395-6.908 15.395-15.4c0-4.71-2.13-8.927-5.471-11.754 2.482-8.872 1.831-22.27-2.153-35.228l77.074-2.815c3.793 11.731 4.699 25.013 2.626 33.507a15.295 15.295 0 0 0-7.251-1.822c-8.489 0-15.395 6.908-15.395 15.4s6.906 15.4 15.395 15.4 15.395-6.908 15.395-15.4c0-4.71-2.13-8.927-5.471-11.754 2.503-8.899 1.807-22.493-2.217-35.442l82.587-3.016c3.783 11.731 4.681 24.976 2.611 33.461a15.295 15.295 0 0 0-7.251-1.822c-8.489 0-15.395 6.908-15.395 15.4s6.906 15.4 15.395 15.4 15.395-6.908 15.395-15.4c0-4.71-2.13-8.927-5.471-11.754 2.499-8.893 1.812-22.446-2.204-35.397l33.313-1.217 11.566 79.331-280.743 19.212-9.387-88.372 76.351-2.789c.196.625.385 1.256.567 1.892zm-7.303 44.906a1.493 1.493 0 0 0 1.843 1.022c4.069-1.167 7.139-4.604 9.097-9.592a12.372 12.372 0 0 1 3.518 8.643c0 6.848-5.569 12.419-12.415 12.419s-12.415-5.571-12.415-12.419 5.569-12.419 12.415-12.419c2.346 0 4.533.666 6.407 1.801-1.578 4.591-4.087 7.744-7.428 8.703a1.488 1.488 0 0 0-1.022 1.842zm80.22-2.713a1.493 1.493 0 0 0 1.843 1.022c4.069-1.167 7.139-4.604 9.097-9.592a12.372 12.372 0 0 1 3.518 8.643c0 6.848-5.569 12.419-12.415 12.419s-12.415-5.571-12.415-12.419 5.569-12.419 12.415-12.419c2.346 0 4.533.666 6.407 1.801-1.578 4.591-4.087 7.744-7.428 8.702a1.49 1.49 0 0 0-1.022 1.843zm85.653-3.174a1.493 1.493 0 0 0 1.843 1.022c4.069-1.167 7.139-4.604 9.097-9.592a12.372 12.372 0 0 1 3.518 8.643c0 6.848-5.569 12.419-12.415 12.419s-12.415-5.571-12.415-12.419 5.569-12.419 12.415-12.419c2.346 0 4.533.666 6.407 1.801-1.578 4.591-4.087 7.744-7.428 8.702a1.489 1.489 0 0 0-1.022 1.843zm-189.65 128.698 7.498 6.371c-16.992 15.58-22.251 32.739-23.648 44.516-1.163 9.804.02 19.637 3.171 28.123a37.47 37.47 0 0 0-4.219 2.322c-5.389-3.434-11.222-5.328-17.314-5.328-6.082 0-11.906 1.887-17.288 5.31a37.448 37.448 0 0 0-2.549-1.473c2.463-20.504 17.565-57.486 54.349-79.841zm-29.218 4.623c.699 4.479 1.436 9.018 2.21 13.583-.197.212-.385.426-.579.639-.581-4.826-1.124-9.578-1.631-14.222zM89.879 274.74c-2.488 5.336-4.429 10.533-5.884 15.407a48.38 48.38 0 0 0-3.216 2.25L91.322 75.758s8.059 76.677 8.766 83.638l-.001.023c.026.474 2.256 41.399 7.836 87.235-8.442 9.886-14.208 19.859-18.044 28.086zm51.319-250.941c8.584-2.462 20.175 10.214 26.588 28.351l-35.557 1.299c-1.741-15.503 1.887-27.618 8.969-29.65zM31.009 99.603c-1.252-5.61.278-11.099 4.548-16.313 3.135-3.828 3.707-9.043 1.457-13.286-14.902-28.112-16.308-55.458-3.272-63.61 13.029-8.149 36.964 5.092 55.674 30.796 2.83 3.889 7.81 5.578 12.39 4.207 12.378-3.802 21.459 1.166 26.471 12.197l-37.561 1.372c-.758.023-1.394.665-1.434 1.417l-2.556 52.515a335.423 335.423 0 0 1-5.055-9.904C66.424 67.785 61.358 45.272 61.308 45.049a1.49 1.49 0 1 0-2.91.642c.05.225 5.11 22.732 20.267 53.933C64.868 87.177 49.094 89.013 48.9 89.038a1.49 1.49 0 0 0 .379 2.956c.894-.112 22.074-2.499 35.755 20.094.007.011.017.019.024.03.453.842.915 1.693 1.386 2.551l-.795 16.34a32.318 32.318 0 0 0-5.14 2.06c-3.145 1.58-6.973.987-9.526-1.474-12.009-11.576-24.642-19.558-35.907-23.319-2.061-2.898-3.424-5.791-4.067-8.673zm37.448 166.242c-6.908-.168-16.855-6.994-14.83-14.103 1.924-3.665 10.181-5.198 17.266-5.411 5.686-.616 8.318-5.961 2.518-11.05-1.935-1.668-4.33-2.907-7.119-3.681-24.867-6.907-39.691-15.737-44.061-26.247-2.207-5.308-1.652-10.979 1.647-16.856 2.422-4.313 2.08-9.548-.872-13.337-19.555-25.096-25.687-51.783-14.264-62.076 11.415-10.289 37.285-1.406 60.174 20.657 3.463 3.337 8.659 4.139 12.932 1.991a30.75 30.75 0 0 1 3.647-1.549l-3.632 74.622a342.092 342.092 0 0 1-9.846-12.855c-20.433-28.085-29.33-49.376-29.418-49.588a1.49 1.49 0 0 0-2.754 1.138c.088.213 8.978 21.499 29.323 49.593-15.75-9.861-30.966-5.313-31.152-5.255a1.49 1.49 0 0 0 .89 2.845c.21-.067 21.249-6.355 38.699 13.579.01.011.022.019.032.03a344.962 344.962 0 0 0 4.01 4.976l-2.566 52.714c-4.202.151-7.778.056-10.624-.137zm14.351 28.667c-.767 3.083-1.344 6.012-1.709 8.7a33.35 33.35 0 0 0-1.388-.551 55.128 55.128 0 0 0-2.789-2.971c1.883-1.912 3.844-3.652 5.886-5.178zM5.891 371.456c0-44.203 20.74-80.164 46.233-80.164 8.047 0 15.616 3.594 22.21 9.893a29.077 29.077 0 0 0-5.165-.474c-27.135 0-49.212 37.298-49.212 83.144 0 25.509 6.841 48.361 17.579 63.625-18.363-10.615-31.645-40.663-31.645-76.024zm63.277 92.563c-25.493 0-46.232-35.961-46.232-80.164s20.739-80.164 46.232-80.164c5.124 0 10.048 1.477 14.656 4.163-17.236 12.947-29.292 42.131-29.292 76.001 0 33.875 12.059 63.063 29.299 76.007-4.609 2.685-9.537 4.157-14.663 4.157zm34.577 0c-25.493 0-46.232-35.961-46.232-80.164s20.739-80.164 46.232-80.164 46.233 35.961 46.233 80.164-20.741 80.164-46.233 80.164zm34.576 0c-5.123 0-10.047-1.48-14.654-4.164 17.235-12.948 29.29-42.131 29.29-76 0-33.866-12.053-63.047-29.286-75.996 4.607-2.683 9.528-4.167 14.65-4.167 25.493 0 46.232 35.961 46.232 80.164s-20.739 80.163-46.232 80.163zm-12.905-171.138a49.312 49.312 0 0 1 7.012 5.586 53.524 53.524 0 0 0-3.833 3.918c-.202.069-.405.134-.606.208a51.961 51.961 0 0 1-2.573-9.712zm44.189 155.111c10.942-15.262 17.928-38.347 17.928-64.136 0-45.846-22.077-83.144-49.212-83.144-1.503 0-2.989.126-4.457.357 6.565-6.221 14.083-9.776 22.077-9.776 25.493 0 46.233 35.961 46.233 80.164 0 35.95-13.73 66.404-32.569 76.535zm83.612-53.645c-9.47 11.376-17.637 25.524-20.871 42.475l-8.055-.369c3.724-19.036 13.76-34.916 24.703-47.272 1.615-.215 3.178.842 4.857.965a27.162 27.162 0 0 0-.634 4.201zm109.931-15.621c3.752.114 14.124 1.228 17.021 4.97.655.847.847 1.744.602 2.824-.027.121-.644 3.003 1.395 6.131 2.099 3.219 6.125 5.48 11.972 6.723 1.742 2.653 9.537 13.584 22.219 17.857-13.049 2.079-30.914 7.149-33.524 19.402-6.548-1.217-28.963-4.879-34.94.788-1.302 1.235-1.849 2.853-1.582 4.681.007.05.017.099.03.148 1.429 5.689 2.981 14.332 2.461 17.689-6.015-.344-33.934-3.625-45.467-34.74-.313-.919-1.541-1.277-2.299-.668-.162.123-14.996 11.708-12.234 32.265-10.423-11.307-38.33-45.885-31.651-67.431a1.49 1.49 0 0 0-.366-1.489l93.985-15.742c1.602 4.505 5.647 6.19 12.378 6.592zm-159.804 15.078a135.152 135.152 0 0 0 1.63-15.376l205.949-32.804 1.948 13.086zm218.813-52.987L205.099 375.39a139.177 139.177 0 0 0-.863-19.885l209.282-33.335c3.908 9.987 7.009 15.857 8.639 18.647zm24.672-54.613c-6.142 1.487-16.652 4.354-28.079 8.792a228.915 228.915 0 0 1-3.966-10.511c10.565-1.757 21.27-1.192 32.045 1.719zm10.862-24.659c-8.493 3.026-25.514 9.758-41.083 19.756-.936.127-1.859.273-2.774.43a321.887 321.887 0 0 1-3.876-12.253c15.03-7.93 31.016-10.616 47.733-7.933zm-46.692-24.958c8.706-2.213 15.148 4.239 24.063 3.064-5.745 8.884-16.057 17.033-23.578 16.194-2.074-.077-3.954-.58-5.622-1.29a509.281 509.281 0 0 1-3.223-13.432c1.971-1.937 4.67-3.688 8.36-4.536zm15.615 80.48-222.759 35.482c-5.082-36.763-24.628-64.238-47.913-64.238-7.625 0-14.843 2.964-21.289 8.221-3.053-2.944-6.31-5.449-9.736-7.442-1.768-18.525 5.234-40.301 24.088-56.926.675-.567.665-1.699-.02-2.253l-9.612-8.168a1.487 1.487 0 0 0-1.727-.145 118.899 118.899 0 0 0-23.822 18.638c-7.156-42.764-10.984-82.841-11.727-91.013l280.813-19.216c12.982 136.022 37.102 177.902 43.704 187.06zm-25.908-84.813a667.914 667.914 0 0 1-3.128-15.92c3.342 1.489 6.604 1.934 8.668 2.036a314.746 314.746 0 0 0-5.54 13.884zm6.898-17.003h-.012l-.03.069-.055.093c-1.733.031-6.371-.244-10.599-2.771a850.852 850.852 0 0 1-4.698-29.268c5.013 5.776 12.742 7.099 16.156 14.368 4.141 8.107.608 15.247-.762 17.509zm15.715-10.973c8.706-2.213 15.148 4.239 24.063 3.064-5.744 8.884-16.057 17.033-23.578 16.195-7.007-.258-11.892-5.304-13.431-7.119a22.89 22.89 0 0 0 1.862-4.216c1.892-3.021 5.271-6.588 11.084-7.924zm15.994-30.095c8.706-2.213 15.148 4.239 24.063 3.064-5.744 8.884-16.057 17.033-23.578 16.195-7.137-.263-12.084-5.503-13.523-7.227.764-2.335 3.915-9.937 13.038-12.032zm-29.549 3.541c-5.476-5.215-5.865-18.373-2.754-28.477 4.831 7.587 14.24 8.225 17.814 16.469 4.107 9.476-.579 17.142-.923 17.724-2.333-.005-9.404-.478-14.137-5.716z" data-original="#000000"/></svg>