<svg xmlns="http://www.w3.org/2000/svg" xml:space="preserve" width="512" height="512" style="enable-background:new 0 0 512 512" viewBox="0 0 511.944 511.944"><path d="M426.862 341.337c3.259-3.693 9.943-12.632 17.299-30.373l-11.676 3.221-4.883 2.249c-5.011-71.637-19.092-145.132-37.792-219.992-1.149-4.569-5.724-8.054-10.203-7.725-87.347 6.402-178.524 24.214-271.972 45.633-.505-8.513-1.813-23.434-4.733-21.564-4.056 2.596-17.984 30.737-17.984 30.737-.723 1.354-1.116 2.828-1.048 4.292 3.644 77.715 18.547 157.696 38.93 239.289 1.149 4.572 5.723 8.052 10.205 7.727 92.127-6.75 188.514-26.194 287.339-49.179a11.322 11.322 0 0 0 4.427-2.173l.006-.003a11.37 11.37 0 0 0 2.085-2.139z" data-original="#f1854f" style="fill-rule:evenodd;clip-rule:evenodd"/><path fill="#4491fb" d="M444.764 307.612c.202 4.351-3.586 8.794-8.396 9.919-98.825 22.985-195.209 42.426-287.339 49.179-4.484.33-9.056-3.158-10.205-7.724-20.383-81.597-35.289-161.577-38.93-239.291-.202-4.349 3.584-8.795 8.396-9.919 98.822-22.983 195.212-42.429 287.339-49.183 4.482-.326 9.056 3.157 10.205 7.73 20.384 81.594 35.287 161.576 38.93 239.289z" data-original="#f9d555"/><path fill="#fff" d="M230.253 185.269c.033.618-.546 1.253-1.283 1.414-15.105 3.274-29.838 6.039-43.922 7.002-.685.044-1.387-.448-1.561-1.103-3.117-11.618-5.393-23.004-5.95-34.068-.033-.622.546-1.254 1.283-1.414 15.105-3.274 29.841-6.042 43.925-7.004.685-.044 1.384.452 1.559 1.098 3.116 11.621 5.392 23.011 5.949 34.075zM242.909 253.722c.03.617-.549 1.25-1.286 1.411-15.105 3.273-29.838 6.04-43.922 7.004-.685.041-1.387-.45-1.561-1.1-3.117-11.619-5.393-23.006-5.95-34.071-.033-.62.549-1.253 1.283-1.414 15.107-3.273 29.841-6.04 43.928-7.004.682-.046 1.381.45 1.556 1.1 3.116 11.622 5.398 23.009 5.952 34.074zM255.565 322.173c.03.619-.551 1.253-1.286 1.411-15.107 3.27-29.841 6.04-43.925 7.004-.685.044-1.384-.447-1.561-1.103-3.114-11.619-5.393-23.004-5.95-34.069-.027-.622.549-1.255 1.283-1.414 15.11-3.27 29.844-6.043 43.927-7.004.685-.044 1.381.453 1.558 1.103 3.116 11.617 5.398 23.004 5.954 34.072z" data-original="#ffffff"/><path fill="#29aefd" d="m199.064 401.376-56.958-70.903-41.171 37.164-45.082-8.409-6.005 89.381c-.131 1.982.909 2.721 2.309 1.648l26.208-20.007c1.4-1.067 3.535-.682 4.749.857l22.512 28.711c1.207 1.542 2.358 1.198 2.558-.764l6.744-66.475 40.707 47.394c1.31 1.523 2.486 1.217 2.617-.682l2.443-35.322c.128-1.897 1.717-3.314 3.521-3.147l33.848 3.104c1.805.163 2.258-.981 1-2.55z" data-original="#29aefd" style="fill-rule:evenodd;clip-rule:evenodd"/><path fill="#074785" d="m156.795 348.763-14.69-18.29-41.171 37.164-45.082-8.409-1.758 26.151c11.294 4.88 24.076 6.892 38.209 5.852 29.627-2.184 51.842-16.759 64.492-42.468z" data-original="#074785" style="fill-rule:evenodd;clip-rule:evenodd"/><path fill="#fddf60" d="M172.187 268.603c12.907 46.665-14.461 94.96-61.123 107.867C64.396 389.375 16.1 362.012 3.195 315.341c-12.909-46.662 14.459-94.957 61.124-107.867 46.666-12.904 94.957 14.461 107.868 61.129z" data-original="#fd6085" style="fill-rule:evenodd;clip-rule:evenodd"/><path fill="#fff" d="m78.283 268.876 21.989-35.434 1.992 41.651 41.679 1.321-35.079 22.551 19.698 36.754-37.071-19.1-21.985 35.439-1.993-41.651-41.676-1.327 35.076-22.55-19.697-36.755z" data-original="#ffffff" style="fill-rule:evenodd;clip-rule:evenodd"/><g fill="#ffa4ac"><path d="M102.968 364.728c-2.418-11.48-4.834-22.965-7.252-34.446 1.07-.232 2.14-.464 3.207-.69 2.413 11.48 4.825 22.963 7.244 34.443-1.067.232-2.134.461-3.199.693zM70.311 252.335c-2.418-11.48-4.834-22.965-7.252-34.451 1.07-.224 2.137-.456 3.21-.685 2.41 11.477 4.826 22.963 7.238 34.445-1.067.23-2.132.462-3.196.691zM136.164 239.613l-22.01 27.477-2.571-2.042c7.34-9.155 14.679-18.309 22.015-27.464.857.678 1.709 1.355 2.566 2.029zM57.799 322.253c-7.337 9.16-14.676 18.317-22.013 27.475a674.633 674.633 0 0 1-2.568-2.042l22.015-27.461c.855.676 1.709 1.353 2.566 2.028zM155.93 315.222c-11.294-3.183-22.591-6.362-33.886-9.542.292-1.054.582-2.107.876-3.161 11.289 3.183 22.583 6.365 33.875 9.548a813.28 813.28 0 0 1-.865 3.155zM48.041 284.865c-11.299-3.177-22.591-6.36-33.889-9.542.291-1.054.584-2.105.876-3.161 11.293 3.183 22.585 6.365 33.878 9.55l-.865 3.153z" data-original="#ffa4ac" style="fill-rule:evenodd;clip-rule:evenodd"/></g><path fill="#ffa4ac" d="m477.463 223.813 21.325 4.4-21.325 4.694-4.353 23.367-3.972-23.367-21.377-4.694 21.377-4.4 3.972-23.315zM56.56 162.744l21.322 4.4-21.322 4.699-4.356 23.365-3.972-23.365-21.374-4.699 21.374-4.4 3.972-23.309z" data-original="#ffa4ac"/><path fill="#074785" d="m407.409 256.271 10.926 2.255-10.926 2.407-2.23 11.969-2.036-11.969-10.95-2.407 10.95-2.255 2.036-11.944zM290.229 201.939l10.924 2.255-10.924 2.407-2.232 11.968-2.037-11.968-10.95-2.407 10.95-2.255 2.037-11.947zM373.384 128.145l10.926 2.257-10.926 2.409-2.23 11.968-2.036-11.968-10.948-2.409 10.948-2.257 2.036-11.94zM142.149 157.021l10.926 2.257-10.926 2.406-2.232 11.97-2.034-11.97-10.95-2.406 10.95-2.257 2.034-11.941z" data-original="#074785"/><path fill="#fff" d="m307.599 137.089 10.929 2.256-10.929 2.409-2.23 11.97-2.033-11.97-10.951-2.409 10.951-2.256 2.033-11.94zM332.077 297.049l10.926 2.254-10.926 2.408-2.233 11.966-2.033-11.966-10.953-2.408 10.953-2.254 2.033-11.944z" data-original="#ffffff"/><path d="M216.245 171.803c.996-.833 1.908-1.575 2.798-2.342 6.57-5.658 12.392-11.779 18.983-17.412 1.408-1.201 2.904-2.314 4.4-3.408 1.095-.8 4.062-2.481 4.697-.184.371 1.337-.762 2.859-1.449 3.9-3.455 5.221-8.483 9.103-12.708 13.632-5.213 5.587-11 11.011-16.213 16.598-.071.074-.142.149-.218.222-.68.663-1.193.667-1.851-.029-1.125-1.195-2.236-2.407-3.349-3.612-3.371-3.641-6.742-7.288-10.11-10.931-1.056-1.139-.882-2.182.483-2.978 1.275-.741 2.555-1.482 3.821-2.238 1.064-.635 2.017-.531 2.844.347 2.47 2.615 4.94 5.237 7.408 7.857.15.159.276.344.464.578zM228.746 240.309c.999-.835 1.911-1.577 2.801-2.342 6.567-5.655 12.391-11.78 18.986-17.411 1.408-1.204 2.899-2.317 4.394-3.409 1.097-.802 4.061-2.481 4.7-.186.371 1.34-.759 2.86-1.449 3.9-3.453 5.222-8.483 9.103-12.711 13.633-5.213 5.59-10.999 11.011-16.213 16.595-.071.077-.139.153-.213.224-.683.666-1.196.669-1.851-.027-1.13-1.196-2.238-2.408-3.352-3.614-3.371-3.641-6.742-7.288-10.11-10.929-1.056-1.141-.885-2.183.48-2.981 1.278-.742 2.558-1.479 3.827-2.238 1.062-.633 2.014-.529 2.839.344 2.473 2.617 4.943 5.241 7.408 7.861.153.16.278.346.464.58zM239.571 306.968c.996-.832 1.911-1.577 2.798-2.342 6.57-5.655 12.392-11.775 18.989-17.411 1.406-1.204 2.901-2.317 4.394-3.406 1.097-.802 4.062-2.481 4.7-.188.371 1.337-.759 2.861-1.452 3.903-3.45 5.224-8.48 9.103-12.706 13.631-5.216 5.59-10.999 11.013-16.215 16.597-.071.074-.139.15-.213.221-.685.666-1.195.672-1.853-.027-1.127-1.196-2.235-2.405-3.349-3.614-3.371-3.641-6.742-7.282-10.11-10.929-1.056-1.141-.884-2.183.48-2.978 1.277-.745 2.557-1.485 3.827-2.238 1.062-.636 2.014-.532 2.839.344 2.473 2.615 4.94 5.238 7.408 7.858.152.161.277.344.463.579z" data-original="#f1854f" style="fill-rule:evenodd;clip-rule:evenodd"/><path fill="#074785" d="M311.164 246.112a956.426 956.426 0 0 1 2.274 4.877c-1.597 1.056-3.196 2.118-4.79 3.174-1.07.655-2.145 1.277-3.196 1.96-1.621 1.054-2.871 1.097-3.862-.658-1.004-1.771-.158-3.109 1.419-4.152 2.08-1.373 4.179-2.724 6.278-4.094l1.877-1.107z" data-original="#074785" style="fill-rule:evenodd;clip-rule:evenodd"/><path fill="#ff7ac4" d="M430.929 154.769a852.992 852.992 0 0 0-32.043 18.087c-40.251 24.065-84.247 60.138-90.516 70.433-1.976 3.903.958 13.352 4.809 12.675 15.558-3.09 65.045-26.241 105.858-50.309 11.321-6.706 21.886-13.455 31.502-20.17 13.574-9.479 19.128-19.832 29.029-28.591 16.653-14.776-6.912-24.486-48.639-2.125z" data-original="#a089e4" style="fill-rule:evenodd;clip-rule:evenodd"/><path fill="#074785" d="M356.192 201.532c-8.682 6.411-16.74 12.673-23.859 18.738 4.201 8.139 8.123 16.169 11.988 24.112 8.928-3.936 18.72-8.71 28.958-13.833-5.658-9.655-11.15-19.167-17.087-29.017z" data-original="#074785" style="fill-rule:evenodd;clip-rule:evenodd"/><path fill="#ffa4ac" d="M450.54 185.486c35.949-25.094 63.454-52.24 61.284-60.263-2.388-7.926-39.372 7.66-80.862 29.52 6.365 10.173 12.727 20.408 19.578 30.743z" data-original="#ffa4ac" style="fill-rule:evenodd;clip-rule:evenodd"/><path fill="#074785" d="M497.939 128.835c-.431-.862-1.015-2.744-1.346-3.661l-5.844 1.426s-1.007-2.28-3.022-5.176c-5.145-7.398-13.284-10.028-21.56-4.888-10.656 6.634-21.235 13.31-31.719 19.826-12.692 7.899-19.807 11.57-37.904 23.451-1.927 1.275 3.63 2.24 4.282 2.32 1.788.231 3.633.175 5.366-.337 1.738-.509 3.098-1.565 4.626-2.495 17.706-11.2 36.075-22.724 56.248-35.469 8.232-5.253 13.328-3.548 16.557 5.404-2.309 1.202-4.749 2.237-7.067 3.443 3.598 6.511 9.108 15.22 13.066 21.816 2.73-2.437 9.149-8.243 14.739-15.031-3.714-4.868-4.62-7.027-6.422-10.629z" data-original="#074785"/><path fill="#fff" d="M392.82 212.516c12.493-6.1 24.262-12.94 35.343-20.771 4.1-2.951-.136-8.789-4.231-5.888-10.989 7.681-22.611 14.338-34.871 20.255-4.595 2.187-.987 8.694 3.759 6.404z" data-original="#ffffff" style="fill-rule:evenodd;clip-rule:evenodd"/><path fill="#074785" d="M191.391 81.961c-7.981-5.526-18.156-4.471-26.192.368-6.01 3.625-12.889 9.568-13.224 17.507 2.252-.499 4.998-1.107 7.719-1.702 1.357-3.823 5.415-6.627 8.461-8.622 5.664-3.712 12.763-4.909 18.721-1.359 4.367 2.598 6.543 6.302 6.938 11.623.292 3.936-.409 7.267-2.648 9.584-1.299-1.207-2.953-1.93-4.755-1.93-4.154 0-7.525 3.834-7.525 8.562 0 4.729 3.371 8.561 7.525 8.561 3.898 0 7.102-3.376 7.481-7.702 4.585-3.263 7.056-8.287 7.246-14.889.248-8.523-3.128-15.419-9.747-20.001zM268.017 67.594c-7.975-5.527-18.159-4.474-26.189.369-5.593 3.371-11.936 8.746-13.066 15.872 2.437-.44 5.366-.97 8.199-1.477 1.73-3.113 5.161-5.471 7.822-7.214 5.661-3.713 12.76-4.909 18.718-1.361 4.37 2.6 6.543 6.302 6.938 11.626.295 3.934-.409 7.266-2.648 9.582-1.297-1.205-2.953-1.93-4.755-1.93-4.154 0-7.522 3.835-7.522 8.562 0 4.727 3.368 8.564 7.522 8.564 3.898 0 7.102-3.379 7.484-7.703 4.585-3.266 7.056-8.286 7.244-14.893.248-8.524-3.128-15.416-9.747-19.997zM344.649 54.883c-7.984-5.527-18.162-4.474-26.194.368-5.494 3.312-11.712 8.56-13 15.502 2.255-.322 5.197-.738 8.161-1.156 1.739-3.09 5.148-5.431 7.795-7.165 5.661-3.713 12.763-4.909 18.721-1.361 4.367 2.601 6.543 6.302 6.938 11.623.292 3.936-.409 7.269-2.65 9.586-1.294-1.208-2.948-1.93-4.755-1.93-4.154 0-7.522 3.832-7.522 8.562 0 4.727 3.368 8.561 7.522 8.561 3.901 0 7.105-3.377 7.484-7.702 4.585-3.264 7.058-8.287 7.247-14.89.245-8.524-3.131-15.417-9.747-19.998z" data-original="#074785"/><path fill="#fff" d="M369.41 319.698c8.359-3.479 19.236-6.315 28.741-8.308 9.48-1.938 20.597-3.631 29.609-3.728-8.351 3.49-19.237 6.325-28.741 8.306-9.479 1.935-20.599 3.623-29.609 3.73zM112.677 122.222c8.355-3.473 19.236-6.322 28.738-8.305 9.479-1.941 20.599-3.637 29.614-3.73-8.348 3.483-19.242 6.331-28.741 8.304-9.479 1.932-20.6 3.627-29.611 3.731z" data-original="#ffffff"/><path fill="#074785" d="M206.621 360.983c20.147-4.856 41.728-8.634 62.523-12.04 20.383-3.246 41.392-6.368 61.623-8.568l1.433-.131s-.478.144-1.373.42c-19.456 5.806-40.509 9.973-60.872 13.298-20.668 3.274-43.305 6.146-63.334 7.021z" data-original="#074785"/><path fill="#fff" d="M155.087 247.81c-1.586-1.73-4.146.846-2.568 2.566 9.728 10.607 12.457 27.938 12.544 41.815.016 2.342 3.647 2.345 3.63 0-.093-14.917-3.18-33.016-13.606-44.381zM33.854 232.498c-11.922 8.014-19.881 21.123-23.11 34.986-.531 2.276 2.972 3.242 3.502.963 3.009-12.916 10.301-25.326 21.442-32.813 1.932-1.297.117-4.446-1.834-3.136zM49.592 221.602c-2.596 1.184-4.984 2.517-7.146 4.4-1.77 1.539.811 4.1 2.568 2.566 1.913-1.662 4.119-2.784 6.411-3.827 2.13-.975.282-4.105-1.833-3.139zM165.052 300.993c-.655 2.145-.584 4.446-1.452 6.534-.379.917.404 1.995 1.269 2.235 1.045.287 1.856-.357 2.233-1.269.868-2.085.8-4.389 1.455-6.537.685-2.246-2.823-3.199-3.505-.963z" data-original="#ffffff"/></svg>