<?xml version="1.0" standalone="no"?>
<!DOCTYPE svg PUBLIC "-//W3C//DTD SVG 20010904//EN"
 "http://www.w3.org/TR/2001/REC-SVG-20010904/DTD/svg10.dtd">
<svg version="1.0" xmlns="http://www.w3.org/2000/svg"
 width="600.000000pt" height="450.000000pt" viewBox="0 0 600.000000 450.000000"
 preserveAspectRatio="xMidYMid meet">

<g transform="translate(0.000000,450.000000) scale(0.100000,-0.100000)"
fill="#000000" stroke="none">
<path d="M4766 3878 c-7 -18 -16 -41 -19 -51 -5 -12 -13 -16 -24 -13 -10 3
-57 10 -105 17 -153 19 -320 -16 -443 -94 -64 -40 -159 -129 -197 -185 l-30
-44 38 24 c75 47 137 62 194 49 73 -16 121 -60 197 -180 2 -2 34 10 71 27 54
25 82 32 131 32 l63 0 -7 -27 c-32 -131 -281 -930 -291 -936 -7 -4 -27 -54
-44 -110 -17 -56 -36 -117 -41 -135 -12 -37 -40 -56 -69 -47 -32 10 -39 35
-27 88 9 40 8 50 -4 58 -8 5 -18 9 -22 9 -14 0 -37 -67 -37 -107 0 -95 109
-145 177 -81 28 27 96 231 98 299 2 43 269 954 286 973 21 24 131 -79 174
-163 l25 -50 57 27 c50 23 71 27 148 27 79 0 97 -4 149 -29 33 -16 84 -52 113
-80 57 -56 57 -58 26 53 -59 211 -216 401 -411 499 -53 27 -111 53 -129 59
l-32 11 15 47 c7 26 11 51 8 56 -10 18 -25 8 -38 -23z"/>
<path d="M2693 3758 c33 -88 102 -238 108 -238 7 0 -15 58 -77 198 -12 28 -26
52 -30 52 -3 0 -4 -6 -1 -12z"/>
<path d="M3502 3583 c29 -65 110 -214 114 -210 7 7 -99 217 -109 217 -5 0 -7
-3 -5 -7z"/>
<path d="M1776 3478 c31 -53 87 -128 92 -124 6 7 -79 135 -91 136 -5 0 -5 -6
-1 -12z"/>
<path d="M2350 3166 c0 -14 95 -197 98 -188 3 11 -84 192 -93 192 -3 0 -5 -2
-5 -4z"/>
<path d="M3790 3045 c0 -10 93 -136 97 -131 6 5 -80 136 -89 136 -5 0 -8 -2
-8 -5z"/>
<path d="M1360 3036 c0 -4 87 -153 97 -165 2 -2 5 -2 8 1 7 6 -81 154 -96 163
-5 4 -9 4 -9 1z"/>
<path d="M3100 3003 c0 -13 82 -133 91 -133 5 0 -12 32 -37 70 -45 68 -54 78
-54 63z"/>
<path d="M2820 2692 c0 -24 98 -207 107 -198 5 4 -53 122 -87 178 -11 18 -20
27 -20 20z"/>
<path d="M2036 2600 c-14 -22 -28 -40 -29 -40 -2 0 -27 7 -55 15 -37 11 -57
13 -71 6 -25 -14 -56 -66 -70 -116 -10 -39 -10 -41 31 -82 l41 -42 -10 -56
c-5 -30 -8 -55 -7 -55 2 0 27 9 57 20 122 46 192 180 166 318 -6 34 -15 64
-19 67 -4 3 -19 -13 -34 -35z"/>
<path d="M2433 2509 c1 -17 -16 -36 -77 -83 -76 -58 -116 -110 -116 -149 0
-41 48 -101 113 -142 25 -16 29 -16 46 -1 24 21 29 20 75 -14 39 -30 106 -42
106 -20 0 6 -10 8 -22 5 -16 -4 -39 5 -73 26 -27 18 -61 33 -74 34 -27 1 -63
41 -59 64 4 17 37 20 76 7 17 -6 22 -4 22 9 0 17 48 64 66 65 7 0 14 -7 18
-15 3 -8 12 -15 21 -15 21 0 20 73 -1 94 -21 22 -37 20 -60 -6 -16 -18 -16
-20 -2 -15 30 11 27 -20 -4 -43 -31 -23 -42 -20 -51 15 -4 15 6 29 44 58 39
29 49 43 49 66 0 16 -7 34 -15 41 -12 10 -15 10 -15 -1 0 -8 -8 -5 -22 8 -38
34 -48 36 -45 12z m127 -198 l-1 -26 -14 25 c-8 14 -14 34 -14 45 0 20 0 20
14 1 8 -11 15 -31 15 -45z"/>
<path d="M1200 2241 c0 -17 72 -131 82 -131 6 0 4 10 -4 23 -8 12 -27 43 -42
70 -28 47 -36 56 -36 38z"/>
<path d="M3209 2193 c-47 -68 -178 -197 -225 -221 -63 -32 -123 -44 -219 -43
-91 1 -205 26 -212 47 -2 6 8 16 22 24 33 18 32 30 -3 30 -32 0 -55 -21 -80
-72 -13 -24 -24 -33 -42 -33 -38 0 -36 28 4 81 20 26 35 49 32 51 -6 6 -180
53 -198 53 -11 0 -20 -10 -24 -25 -4 -18 -11 -24 -23 -20 -259 81 -417 104
-496 71 -56 -24 -82 -98 -112 -321 -8 -56 -9 -60 -33 -57 -14 2 -64 19 -112
38 l-87 35 -171 -78 -171 -78 28 -23 c94 -77 299 -140 483 -149 l115 -6 14 36
c14 35 33 47 77 47 17 0 23 -8 28 -39 l6 -38 47 8 c26 5 63 14 82 19 20 5 39
10 42 10 4 0 -5 -22 -19 -48 -33 -63 -26 -87 24 -78 19 4 41 9 49 12 9 4 19
-16 34 -63 43 -137 55 -173 61 -173 3 0 19 22 35 50 l30 50 60 0 c71 0 237
-24 304 -44 122 -36 305 -160 493 -335 l60 -55 27 30 28 31 113 -96 113 -95
45 50 c100 110 242 304 242 330 0 8 -10 14 -23 14 -25 0 -166 -66 -256 -119
l-54 -32 -26 25 c-63 59 -317 254 -438 336 -162 109 -244 137 -500 171 -51 7
-93 16 -93 19 0 4 39 56 86 116 53 67 93 108 103 107 9 -1 78 -9 153 -19 112
-15 153 -16 223 -7 132 16 196 52 336 192 64 64 131 138 148 165 35 57 36 54
-51 127 l-47 40 -32 -48z m-1199 -254 c110 -30 110 -29 60 -83 -51 -56 -149
-106 -211 -109 l-44 -2 2 54 c2 30 10 79 18 108 l16 53 42 0 c23 0 76 -9 117
-21z"/>
<path d="M2376 2221 c-3 -5 2 -11 12 -14 9 -2 26 -8 37 -12 16 -6 15 -3 -5 14
-28 23 -36 25 -44 12z"/>
<path d="M1820 1444 c0 -12 6 -15 21 -11 15 4 22 -1 29 -19 5 -13 16 -24 25
-24 18 0 19 11 3 45 -9 19 -19 25 -45 25 -24 0 -33 -5 -33 -16z"/>
<path d="M1620 1422 c-25 -10 -45 -23 -44 -30 1 -7 2 -25 3 -42 2 -45 31 -40
31 5 0 31 3 35 40 45 28 8 38 15 34 25 -7 18 -8 18 -64 -3z"/>
<path d="M814 1373 c-34 -52 -191 -369 -196 -396 -3 -18 -1 -27 7 -27 22 0
117 83 202 176 l81 88 66 -43 c36 -24 66 -45 66 -48 0 -3 -16 -23 -35 -45 -19
-23 -32 -44 -30 -48 9 -15 231 -144 363 -212 263 -135 342 -140 462 -31 35 31
55 38 166 63 90 20 133 35 150 51 26 24 39 53 30 68 -5 8 -529 -117 -554 -133
-7 -4 -12 -14 -12 -22 0 -17 -2 -17 -34 -3 -20 10 -27 26 -45 103 -12 50 -21
96 -21 103 0 7 -46 35 -102 64 -167 83 -225 116 -384 220 -83 55 -154 99 -156
99 -3 0 -14 -12 -24 -27z"/>
</g>
</svg>
