<svg xmlns="http://www.w3.org/2000/svg" xml:space="preserve" width="512" height="512" style="enable-background:new 0 0 512 512" viewBox="0 0 476.241 476.241"><path fill="#8eb1f7" d="m7.999 332.475 135.768 135.768 248.896-248.904 11.32-147.08-55.264 4.256a95.125 95.125 0 0 0-16.256 40c13.067-1.944 25.236 7.072 27.18 20.139 1.944 13.067-7.073 25.236-20.139 27.18-13.067 1.944-25.236-7.072-27.18-20.139a23.922 23.922 0 0 1 20.139-27.18 95.125 95.125 0 0 1 16.256-40l-91.816 7.064L7.999 332.475z" data-original="#ffc67b"/><path fill="#1f2323" d="M467.759 8.483c-19.264-19.264-62.824-4.752-101.336 33.752a193.075 193.075 0 0 0-22.288 26.592l-87.848 6.76a7.996 7.996 0 0 0-5.04 2.32L2.343 326.819a8 8 0 0 0 0 11.312l135.76 135.768a8 8 0 0 0 11.312 0l248.912-248.904a7.996 7.996 0 0 0 2.32-5.04l6.768-88.2a6.74 6.74 0 0 0 1.136-.496 190.518 190.518 0 0 0 25.44-21.44c38.519-38.512 53.032-82.08 33.768-101.336zM324.783 128.827c.096-.096.208-.16.304-.248a28.538 28.538 0 0 0 7.584 14.984 8 8 0 0 0 11.312-11.312 13.214 13.214 0 0 1-3.424-7.392 15.739 15.739 0 0 1 6.848 4c6.249 6.247 6.251 16.378.003 22.627-6.247 6.249-16.378 6.251-22.627.003-6.249-6.247-6.251-16.378-.003-22.627l.003-.003v-.032zm60.135 86.944-241.16 241.16L19.31 332.475 260.462 91.331l73.544-5.664a93.503 93.503 0 0 0-8.688 24.456 31.663 31.663 0 0 0-11.848 7.4c-12.499 12.495-12.502 32.756-.007 45.255 12.495 12.499 32.756 12.502 45.255.007 12.499-12.495 12.502-32.756.007-45.255l-.007-.007a31.687 31.687 0 0 0-16.488-8.8 100.459 100.459 0 0 1 11.136-24.576l41.92-3.2-10.368 134.824zm37.776-117.28a178.908 178.908 0 0 1-13.68 12.224l2.912-37.84a8 8 0 0 0-8.592-8.592l-37.912 2.92a179.75 179.75 0 0 1 12.312-13.656c32.184-32.184 68.088-44.36 78.712-33.752s-1.576 46.52-33.752 78.704v-.008z" data-original="#231f20"/></svg>